<svg width="41" height="40" viewBox="0 0 41 40" fill="none" xmlns="http://www.w3.org/2000/svg">
<path d="M15.2509 18.3333V18.35M31.6292 13.9633C32.3602 13.4015 32.9216 12.6485 33.2514 11.7876C33.5812 10.9266 33.6666 9.99123 33.498 9.08481C33.3294 8.17838 32.9135 7.33622 32.2963 6.65139C31.679 5.96656 30.8844 5.46573 30.0003 5.20426C29.1162 4.94278 28.177 4.93085 27.2865 5.16977C26.3961 5.4087 25.589 5.88917 24.9545 6.5581C24.3201 7.22703 23.8829 8.05835 23.6914 8.9602C23.4998 9.86204 23.5614 10.7993 23.8692 11.6683" stroke="#00D4AC" stroke-width="2" stroke-linecap="round" stroke-linejoin="round"/>
<path d="M13.5842 6.66669V13.005C11.5216 14.1987 9.95123 16.0875 9.1542 18.3334H6.9192C6.47717 18.3334 6.05325 18.5089 5.74069 18.8215C5.42813 19.1341 5.25253 19.558 5.25253 20V23.3334C5.25253 23.7754 5.42813 24.1993 5.74069 24.5119C6.05325 24.8244 6.47717 25 6.9192 25H9.15587C9.71587 26.5834 10.6675 28 11.9192 29.1217V32.5C11.9192 33.1631 12.1826 33.7989 12.6514 34.2678C13.1203 34.7366 13.7562 35 14.4192 35C15.0822 35 15.7181 34.7366 16.187 34.2678C16.6558 33.7989 16.9192 33.1631 16.9192 32.5V31.5284C17.4699 31.6209 18.0274 31.6672 18.5859 31.6667H25.2525C25.811 31.6672 26.3685 31.6209 26.9192 31.5284V32.5C26.9192 33.1631 27.1826 33.7989 27.6514 34.2678C28.1203 34.7366 28.7562 35 29.4192 35C30.0822 35 30.7181 34.7366 31.187 34.2678C31.6558 33.7989 31.9192 33.1631 31.9192 32.5V29.1217C33.4293 27.7716 34.4937 25.9948 34.9717 24.0265C35.4497 22.0581 35.3187 19.991 34.596 18.0987C33.8733 16.2065 32.5929 14.5783 30.9245 13.4297C29.256 12.2812 27.2781 11.6664 25.2525 11.6667H21.0859L13.5842 6.66669Z" stroke="#00D4AC" stroke-width="2" stroke-linecap="round" stroke-linejoin="round"/>
</svg>
