<svg width="97" height="65" viewBox="0 0 97 65" fill="none" xmlns="http://www.w3.org/2000/svg">
<g filter="url(#filter0_d_155_948)">
<path d="M54.076 30.6284C54.076 30.6284 55.516 22.3244 54.076 22.3244C52.636 22.3244 51.9233 22.2441 50.62 22.6124C49.8194 22.8386 49.18 23.164 48.652 23.5L48.7509 11.5H40.3001V35.9564H48.652V31.3964C48.844 31.3004 49.084 31.2044 49.42 31.1084C49.9 31.0124 50.428 30.9644 51.004 30.8684C51.532 30.7724 52.108 30.7244 52.6839 30.6764L52.684 30.6764C53.212 30.6764 53.692 30.6284 54.076 30.6284Z" fill="black"/>
<path d="M40.4921 44.2124H14.2841V56.4044H49.132V50.9324H22.4441V49.4444H48.652V37.3964H14.5241V42.8684H40.4921V44.2124Z" fill="black"/>
<path d="M77.9171 22.9004V18.7244H56.989V26.4044H68.8931C68.6531 28.5164 68.1731 30.5324 67.4531 32.5004C66.6851 34.5164 65.6771 36.4364 64.5251 38.3084C63.2771 40.1804 61.933 41.9564 60.397 43.6364C58.813 45.3644 57.133 46.9964 55.309 48.4364L61.117 54.6764C63.469 52.8524 65.6771 50.7404 67.6931 48.2924C68.3171 47.5724 68.8931 46.8044 69.4691 45.9884C70.189 46.6603 70.909 47.2843 71.6289 47.9082L71.6291 47.9084C72.5411 48.8204 73.4531 49.7804 74.3171 50.7884C75.1331 51.8444 75.9491 52.9964 76.7651 54.2924L82.3331 48.3404C81.5651 47.1884 80.7491 46.0844 79.9811 45.0284C79.1651 44.0204 78.3011 43.0604 77.4371 42.1004C76.5251 41.1884 75.5651 40.2764 74.5091 39.3164C74.2211 39.1244 73.9811 38.9324 73.6931 38.6924C74.7491 36.4844 75.6611 34.1804 76.3811 31.7804C77.2451 28.8044 77.7251 25.8764 77.9171 22.9004Z" fill="black"/>
<path d="M83.8691 17.8604V56.5004H92.7491V17.8604H83.8691Z" fill="black"/>
</g>
<path d="M15.2509 18.3333V18.35M31.6292 13.9633C32.3602 13.4015 32.9216 12.6485 33.2514 11.7876C33.5812 10.9266 33.6666 9.99123 33.498 9.08481C33.3294 8.17838 32.9135 7.33622 32.2963 6.65139C31.679 5.96656 30.8844 5.46573 30.0003 5.20426C29.1162 4.94278 28.177 4.93085 27.2865 5.16977C26.3961 5.4087 25.589 5.88917 24.9545 6.5581C24.3201 7.22703 23.8829 8.05835 23.6914 8.9602C23.4998 9.86204 23.5614 10.7993 23.8692 11.6683" stroke="#00D4AC" stroke-width="2" stroke-linecap="round" stroke-linejoin="round"/>
<path d="M13.5842 6.66669V13.005C11.5216 14.1987 9.95123 16.0875 9.1542 18.3334H6.9192C6.47717 18.3334 6.05325 18.5089 5.74069 18.8215C5.42813 19.1341 5.25253 19.558 5.25253 20V23.3334C5.25253 23.7754 5.42813 24.1993 5.74069 24.5119C6.05325 24.8244 6.47717 25 6.9192 25H9.15587C9.71587 26.5834 10.6675 28 11.9192 29.1217V32.5C11.9192 33.1631 12.1826 33.7989 12.6514 34.2678C13.1203 34.7366 13.7562 35 14.4192 35C15.0822 35 15.7181 34.7366 16.187 34.2678C16.6558 33.7989 16.9192 33.1631 16.9192 32.5V31.5284C17.4699 31.6209 18.0274 31.6672 18.5859 31.6667H25.2525C25.811 31.6672 26.3685 31.6209 26.9192 31.5284V32.5C26.9192 33.1631 27.1826 33.7989 27.6514 34.2678C28.1203 34.7366 28.7562 35 29.4192 35C30.0822 35 30.7181 34.7366 31.187 34.2678C31.6558 33.7989 31.9192 33.1631 31.9192 32.5V29.1217C33.4293 27.7716 34.4937 25.9948 34.9717 24.0265C35.4497 22.0581 35.3187 19.991 34.596 18.0987C33.8733 16.2065 32.5929 14.5783 30.9245 13.4297C29.256 12.2812 27.2781 11.6664 25.2525 11.6667H21.0859L13.5842 6.66669Z" stroke="#00D4AC" stroke-width="2" stroke-linecap="round" stroke-linejoin="round"/>
<defs>
<filter id="filter0_d_155_948" x="10.2841" y="11.5" width="86.4651" height="53.0004" filterUnits="userSpaceOnUse" color-interpolation-filters="sRGB">
<feFlood flood-opacity="0" result="BackgroundImageFix"/>
<feColorMatrix in="SourceAlpha" type="matrix" values="0 0 0 0 0 0 0 0 0 0 0 0 0 0 0 0 0 0 127 0" result="hardAlpha"/>
<feOffset dy="4"/>
<feGaussianBlur stdDeviation="2"/>
<feComposite in2="hardAlpha" operator="out"/>
<feColorMatrix type="matrix" values="0 0 0 0 0 0 0 0 0 0 0 0 0 0 0 0 0 0 0.25 0"/>
<feBlend mode="normal" in2="BackgroundImageFix" result="effect1_dropShadow_155_948"/>
<feBlend mode="normal" in="SourceGraphic" in2="effect1_dropShadow_155_948" result="shape"/>
</filter>
</defs>
</svg>
