<svg width="40" height="40" viewBox="0 0 40 40" fill="none" xmlns="http://www.w3.org/2000/svg">
<g clip-path="url(#clip0_314_630)">
<path d="M24.15 8.97301C22.757 10.599 20.246 10.867 19.07 10.9C18.704 10.91 18.373 10.626 18.327 10.263C18.179 9.09601 18.06 6.57401 19.454 4.94801C20.847 3.32201 23.358 3.05401 24.534 3.02101C24.9 3.01101 25.231 3.29501 25.277 3.65801C25.425 4.82501 25.544 7.34701 24.15 8.97301Z" fill="#006956"/>
<path d="M29.3731 8.47095C26.9281 7.97195 24.4211 8.50295 22.1631 9.81195C20.8341 10.582 19.1661 10.582 17.8371 9.81195C15.5791 8.50395 13.0721 7.97195 10.6271 8.47095C4.44706 9.73295 1.00906 17.095 2.94606 24.916C4.88406 32.737 11.4641 38.054 17.6431 36.793C18.1391 36.692 18.6161 36.55 19.0741 36.372C19.6671 36.142 20.3321 36.142 20.9241 36.372C21.3821 36.55 21.8601 36.691 22.3551 36.793C28.5351 38.054 35.1151 32.737 37.0521 24.916C38.9901 17.095 35.5511 9.73195 29.3711 8.47095H29.3731Z" fill="#EF4452"/>
</g>
<defs>
<clipPath id="clip0_314_630">
<rect width="40" height="40" fill="white"/>
</clipPath>
</defs>
</svg>
