<svg width="40" height="40" viewBox="0 0 40 40" fill="none" xmlns="http://www.w3.org/2000/svg">
<path d="M18.011 9.53613L17.458 9.66313V14.2961C17.64 14.2761 17.826 14.2631 18.011 14.2471V9.53613Z" fill="#901A18"/>
<path d="M19.011 14.184C19.292 14.172 19.574 14.161 19.859 14.159C21.804 13.43 23.774 13.408 24.876 14.51C24.94 14.574 24.991 14.647 25.047 14.717C30.141 15.884 33.749 18.755 33.749 22.12C33.749 22.536 33.677 22.942 33.571 23.341C34.865 22.204 35.753 20.901 36.108 19.5C36.124 19.434 36.147 19.368 36.16 19.302C36.196 19.138 36.209 18.97 36.23 18.804C36.253 18.599 36.284 18.395 36.284 18.187C36.284 13.223 29.661 9.16402 21.256 8.79102L19.009 9.30801V14.185L19.011 14.184Z" fill="#901A18"/>
<path d="M16.458 9.89307L15.905 10.0201V14.5141C16.086 14.4811 16.274 14.4601 16.458 14.4311V9.89307Z" fill="#901A18"/>
<path d="M6.439 23.3819C6.325 22.9699 6.25 22.5499 6.25 22.1199C6.25 18.7649 9.836 15.8999 14.905 14.7269V10.2509L13.398 10.5979C13.342 10.6109 13.286 10.6139 13.232 10.6099C13.008 10.5899 12.81 10.4309 12.753 10.2029C12.707 10.0209 12.769 9.84094 12.889 9.71094C7.464 11.2419 3.716 14.4569 3.716 18.1869C3.716 18.2889 3.737 18.3879 3.742 18.4889C3.841 20.2959 4.828 21.9699 6.44 23.3829L6.439 23.3819Z" fill="#901A18"/>
<path d="M15.098 22.8322C15.065 22.7822 15.036 22.7312 15.005 22.6812C14.957 22.7172 14.904 22.7442 14.857 22.7822C14.938 22.7952 15.018 22.8172 15.098 22.8322Z" fill="#F77F00"/>
<path d="M16.347 16.3721C16.383 16.3371 16.421 16.3031 16.458 16.2691V14.4321C16.274 14.4611 16.086 14.4821 15.905 14.5151V15.8371C16.099 15.9691 16.249 16.1561 16.347 16.3721Z" fill="#F77F00"/>
<path d="M12.882 22.701C13.102 22.686 13.323 22.679 13.544 22.68C13.849 22.317 14.196 22.007 14.573 21.751C14.517 21.58 14.468 21.407 14.434 21.23C13.833 21.618 13.303 22.108 12.882 22.701Z" fill="#F77F00"/>
<path d="M22.2 25.7621C21.412 25.3061 20.526 25.1061 19.64 25.1711C20.214 25.7311 20.718 26.3681 21.13 27.0801C21.224 27.2441 21.209 27.4351 21.118 27.5861C20.844 27.5971 20.571 27.6071 20.294 27.6101C20.286 27.5981 20.271 27.5931 20.264 27.5801C19.57 26.3781 18.588 25.4101 17.418 24.7341C17.152 24.6311 16.896 24.5011 16.65 24.3461C16.286 24.1861 15.912 24.0451 15.521 23.9401C13.507 23.4001 11.401 23.6761 9.593 24.7201C9.354 24.8591 9.048 24.7761 8.91 24.5371C8.772 24.2981 8.854 23.9921 9.093 23.8541C9.9 23.3881 10.761 23.0631 11.646 22.8711C11.648 22.7901 11.662 22.7091 11.706 22.6331C12.344 21.5281 13.27 20.6551 14.38 20.0841C14.397 19.8791 14.426 19.6731 14.473 19.4651C13.167 20.0561 12.025 21.0391 11.255 22.3721C11.162 22.5321 10.994 22.6221 10.821 22.6221C10.736 22.6221 10.65 22.6011 10.571 22.5551C10.332 22.4171 10.25 22.1121 10.388 21.8721C10.481 21.7111 10.586 21.5611 10.688 21.4091C10.628 21.4511 10.559 21.4821 10.479 21.4821H8.803C8.551 21.4821 8.36 21.2281 8.456 20.9951C8.648 20.5291 9.106 20.2011 9.641 20.2011C10.176 20.2011 10.634 20.5291 10.826 20.9951C10.849 21.0521 10.855 21.1101 10.847 21.1651C11.879 19.7401 13.317 18.7441 14.905 18.2281V16.8921H14.345C14.093 16.8921 13.903 16.6381 13.998 16.4051C14.155 16.0241 14.494 15.7461 14.905 15.6541V14.7241C9.836 15.8971 6.25 18.7621 6.25 22.1171C6.25 22.5481 6.325 22.9671 6.439 23.3791C7.352 24.1791 8.46 24.8971 9.739 25.5001C9.781 25.4171 9.838 25.3421 9.925 25.2921C13.233 23.3821 17.44 24.4301 19.492 27.6011C19.072 27.5941 18.653 27.5831 18.241 27.5581C18.819 27.5941 19.405 27.6161 20 27.6161C21.307 27.6161 22.571 27.5151 23.788 27.3451C23.401 26.6991 22.871 26.1471 22.2 25.7601V25.7621Z" fill="#F77F00"/>
<path d="M10.812 25.9634C11.113 26.0834 11.425 26.1944 11.741 26.3024C13.228 25.8004 14.883 25.9434 16.268 26.7494C16.492 26.8804 16.57 27.1564 16.464 27.3884C17.04 27.4624 17.626 27.5224 18.224 27.5594C16.437 25.4074 13.372 24.7164 10.812 25.9634Z" fill="#F77F00"/>
<path d="M11.823 26.3311C12.146 26.4401 12.473 26.5441 12.81 26.6401C12.474 26.5441 12.146 26.4401 11.823 26.3311Z" fill="#F77F00"/>
<path d="M18.011 14.2471C17.826 14.2631 17.641 14.2761 17.458 14.2961V15.4481C17.639 15.3181 17.823 15.1951 18.011 15.0771V14.2481V14.2471Z" fill="#F77F00"/>
<path d="M27.654 26.4971C27.634 26.5031 27.613 26.5091 27.593 26.5161C27.613 26.5101 27.634 26.5041 27.654 26.4971Z" fill="#F77F00"/>
<path d="M10.021 25.6293C9.94502 25.5953 9.86402 25.5643 9.78802 25.5283C9.86302 25.5633 9.94402 25.5943 10.021 25.6293Z" fill="#F77F00"/>
<path d="M16.284 27.3613C15.116 27.2033 13.999 26.9723 12.944 26.6763C13.999 26.9713 15.116 27.2033 16.284 27.3613Z" fill="#F77F00"/>
<path d="M26.59 23.8613C27.221 24.5823 27.741 25.4133 28.116 26.3373C28.504 26.2063 28.883 26.0683 29.25 25.9193L29.249 25.9183C28.664 24.9063 27.686 24.1823 26.591 23.8623L26.59 23.8613Z" fill="#F77F00"/>
<path d="M27.384 20.6151C26.552 20.3921 25.706 20.3151 24.871 20.3681C24.754 20.6101 24.624 20.8491 24.487 21.0851C27.249 20.7471 30.077 22.0281 31.554 24.5861C31.585 24.6401 31.597 24.6991 31.606 24.7581C31.822 24.6301 32.035 24.4991 32.238 24.3641C32.198 24.3321 32.155 24.3021 32.128 24.2551C31.085 22.4471 29.399 21.1551 27.384 20.6151Z" fill="#F77F00"/>
<path d="M23.379 22.645C23.23 22.817 23.076 22.983 22.917 23.143C23.125 23.238 23.33 23.341 23.531 23.457C24.882 24.237 25.91 25.411 26.514 26.815C26.732 26.759 26.945 26.698 27.158 26.637C26.411 24.847 25.042 23.46 23.38 22.646L23.379 22.645Z" fill="#F77F00"/>
<path d="M19.859 14.1592C19.573 14.1612 19.292 14.1722 19.011 14.1842V14.5182C19.291 14.3822 19.575 14.2652 19.859 14.1592Z" fill="#F77F00"/>
<path d="M23.031 24.322C22.721 24.143 22.399 23.998 22.07 23.877C21.825 24.061 21.58 24.221 21.334 24.36C21.805 24.482 22.267 24.645 22.701 24.896C23.644 25.44 24.384 26.233 24.86 27.182C25.083 27.141 25.299 27.09 25.518 27.044C24.99 25.911 24.139 24.962 23.032 24.323L23.031 24.322Z" fill="#F77F00"/>
<path d="M25.291 19.3533C26.075 19.3483 26.865 19.4403 27.643 19.6493C29.916 20.2573 31.817 21.7163 32.994 23.7543C33.003 23.7693 33.006 23.7863 33.01 23.8023C33.205 23.6513 33.393 23.4973 33.572 23.3403C33.678 22.9413 33.75 22.5353 33.75 22.1193C33.75 18.7543 30.141 15.8823 25.048 14.7163C25.936 15.8103 25.918 17.5783 25.291 19.3533ZM26.776 17.8333C26.968 17.3673 27.426 17.0393 27.961 17.0393C28.496 17.0393 28.954 17.3673 29.146 17.8333C29.242 18.0663 29.051 18.3203 28.799 18.3203H27.123C26.871 18.3203 26.68 18.0663 26.776 17.8333Z" fill="#F77F00"/>
<path d="M24.462 22.0831C24.765 22.2631 25.053 22.4651 25.333 22.6801C25.34 22.6801 25.347 22.6751 25.354 22.6751C27.313 22.6751 29.136 23.7241 30.114 25.4171C30.135 25.4541 30.144 25.4931 30.153 25.5321C30.378 25.4271 30.588 25.3121 30.803 25.2001C30.76 25.1671 30.716 25.1351 30.688 25.0861C29.392 22.8411 26.884 21.7281 24.462 22.0831Z" fill="#F77F00"/>
<path d="M36.109 19.4988C35.753 20.8998 34.865 22.2028 33.572 23.3398C33.392 23.4978 33.204 23.6508 33.01 23.8018C33.013 23.8128 33.017 23.8228 33.021 23.8338C32.777 24.0218 32.525 24.2058 32.258 24.3828C32.251 24.3768 32.246 24.3688 32.238 24.3628C32.035 24.4978 31.822 24.6278 31.606 24.7568C31.608 24.7688 31.615 24.7798 31.616 24.7908C31.363 24.9398 31.093 25.0798 30.823 25.2188C30.816 25.2128 30.81 25.2048 30.803 25.1988C30.588 25.3108 30.378 25.4258 30.153 25.5308C30.155 25.5368 30.158 25.5428 30.159 25.5498C29.87 25.6838 29.573 25.8128 29.268 25.9358C29.263 25.9278 29.254 25.9248 29.249 25.9168C28.882 26.0658 28.503 26.2038 28.115 26.3348C28.117 26.3408 28.121 26.3458 28.123 26.3518C27.97 26.4028 27.81 26.4478 27.653 26.4958C27.633 26.5018 27.612 26.5078 27.592 26.5148C27.448 26.5578 27.308 26.6048 27.162 26.6468C27.16 26.6428 27.158 26.6388 27.157 26.6358C26.944 26.6968 26.731 26.7578 26.513 26.8138C26.515 26.8178 26.518 26.8218 26.52 26.8258C26.431 26.8488 26.337 26.8658 26.247 26.8868C26.213 26.8948 26.178 26.9018 26.144 26.9098C25.937 26.9568 25.731 27.0058 25.521 27.0498C25.52 27.0468 25.518 27.0448 25.517 27.0418C25.298 27.0878 25.083 27.1388 24.859 27.1798C24.86 27.1828 24.862 27.1848 24.864 27.1878C24.513 27.2508 24.152 27.2988 23.792 27.3488L23.789 27.3448C22.571 27.5158 21.307 27.6158 20.001 27.6158C19.406 27.6158 18.82 27.5938 18.242 27.5578C18.237 27.5578 18.231 27.5578 18.225 27.5578C17.627 27.5198 17.042 27.4608 16.465 27.3868V27.3878C16.404 27.3798 16.346 27.3688 16.285 27.3598C15.117 27.2018 14.001 26.9698 12.945 26.6748C12.901 26.6628 12.856 26.6508 12.811 26.6388C12.475 26.5428 12.147 26.4388 11.824 26.3298C11.795 26.3198 11.765 26.3118 11.737 26.3028L11.741 26.3018C11.425 26.1938 11.114 26.0828 10.812 25.9628C10.809 25.9648 10.805 25.9648 10.802 25.9668C10.534 25.8598 10.278 25.7438 10.021 25.6288C9.94503 25.5948 9.86403 25.5638 9.78803 25.5278C9.77103 25.5198 9.75303 25.5128 9.73603 25.5058L9.73903 25.5028C8.46003 24.8988 7.35203 24.1818 6.43903 23.3818C4.82703 21.9688 3.84003 20.2948 3.74103 18.4878C3.72403 18.4458 3.71503 18.4188 3.71503 18.4188V22.5928C3.71503 31.5868 11.006 38.8778 20 38.8778C28.994 38.8778 36.285 31.5868 36.285 22.5928C36.285 22.5928 36.302 18.3768 36.285 18.4188C36.278 18.5478 36.247 18.6738 36.231 18.8018C36.21 18.9688 36.197 19.1358 36.161 19.2998C36.147 19.3668 36.126 19.4318 36.109 19.4978V19.4988Z" fill="#CB2C29"/>
<path d="M16.347 16.3724C16.25 16.1564 16.099 15.9694 15.905 15.8374V16.8334C16.013 16.7124 16.121 16.5914 16.241 16.4714C16.275 16.4374 16.312 16.4054 16.347 16.3724Z" fill="#901A18"/>
<path d="M13.999 16.4082C13.903 16.6412 14.094 16.8952 14.346 16.8952H14.906V15.6572C14.496 15.7492 14.156 16.0272 13.999 16.4082Z" fill="#901A18"/>
<path d="M10.826 20.9971C10.634 20.5311 10.176 20.2031 9.64099 20.2031C9.10599 20.2031 8.64799 20.5311 8.45599 20.9971C8.35999 21.2301 8.55099 21.4841 8.80299 21.4841H10.479C10.559 21.4841 10.627 21.4531 10.688 21.4111C10.742 21.3301 10.791 21.2451 10.847 21.1671C10.854 21.1121 10.849 21.0541 10.826 20.9971Z" fill="#901A18"/>
<path d="M27.123 18.3201H28.799C29.051 18.3201 29.242 18.0661 29.146 17.8331C28.954 17.3671 28.496 17.0391 27.961 17.0391C27.426 17.0391 26.968 17.3671 26.776 17.8331C26.68 18.0661 26.871 18.3201 27.123 18.3201Z" fill="#901A18"/>
<path d="M15.905 10.021L16.458 9.89397V8.64697L15.879 8.80397C15.891 8.84597 15.905 8.88697 15.905 8.93297V10.021Z" fill="#3D3D3D"/>
<path d="M17.4579 9.66312L18.0109 9.53612V8.22412L17.4319 8.38112C17.4429 8.42312 17.4579 8.46412 17.4579 8.51012V9.66312Z" fill="#3D3D3D"/>
<path d="M36.8969 4.54906L36.7079 3.79406C36.6679 3.63306 36.5659 3.49706 36.4219 3.41306C36.2789 3.32906 36.1109 3.30706 35.9499 3.35006L18.9839 7.95906C18.9949 8.00106 19.0099 8.04206 19.0099 8.08806V9.30506L21.2569 8.78806L36.4389 5.29606C36.6009 5.25806 36.7389 5.16006 36.8249 5.01806C36.9119 4.87606 36.9379 4.71006 36.8969 4.54906Z" fill="#3D3D3D"/>
<path d="M12.752 10.2019C12.809 10.4299 13.008 10.5889 13.231 10.6089C13.285 10.6139 13.341 10.6099 13.397 10.5969L14.904 10.2499V9.06787L13.134 9.54887C13.033 9.57587 12.954 9.63687 12.887 9.70987C12.767 9.83987 12.706 10.0199 12.752 10.2019Z" fill="#3D3D3D"/>
<path d="M15.46 8.44393L35.688 2.31193C35.847 2.26293 35.977 2.15593 36.055 2.00793C36.132 1.86093 36.146 1.69193 36.094 1.53393L35.853 0.793932C35.802 0.634932 35.691 0.506932 35.542 0.433932C35.393 0.359932 35.225 0.348932 35.067 0.402932L12.727 8.14393C12.451 8.23993 12.3 8.54393 12.39 8.82093C12.455 9.02193 12.631 9.15993 12.829 9.18893C12.904 9.19993 12.984 9.19493 13.061 9.17093L15.083 8.55793C15.17 8.48293 15.281 8.43293 15.405 8.43293C15.424 8.43293 15.441 8.44193 15.459 8.44393H15.46Z" fill="#3D3D3D"/>
<path d="M14.905 10.2496V18.2296C14.915 18.2266 14.925 18.2236 14.935 18.2196C15.177 17.7546 15.497 17.2896 15.905 16.8316V8.93164C15.905 8.88564 15.891 8.84464 15.879 8.80264C15.826 8.60864 15.664 8.46564 15.459 8.44264C15.44 8.44064 15.424 8.43164 15.405 8.43164C15.281 8.43164 15.171 8.48164 15.083 8.55664C14.976 8.64864 14.905 8.77964 14.905 8.93164V10.2496Z" fill="#FFAD00"/>
<path d="M16.458 9.89277V16.2678C16.771 15.9748 17.105 15.6998 17.458 15.4468V8.50977C17.458 8.46377 17.443 8.42276 17.432 8.38076C17.374 8.16876 17.189 8.00977 16.958 8.00977C16.682 8.00977 16.458 8.23377 16.458 8.50977V9.89277Z" fill="#FFAD00"/>
<path d="M18.011 9.53587V15.0759C18.337 14.8719 18.67 14.6829 19.011 14.5179V8.08887C19.011 8.04287 18.996 8.00187 18.985 7.95987C18.927 7.74787 18.742 7.58887 18.511 7.58887C18.235 7.58887 18.011 7.81287 18.011 8.08887V9.53587Z" fill="#FFAD00"/>
<path d="M23.531 23.4561C23.331 23.3401 23.125 23.2371 22.917 23.1421L22.915 23.1441C22.636 23.4231 22.354 23.6631 22.07 23.8771C22.399 23.9981 22.721 24.1431 23.031 24.3221C24.138 24.9611 24.988 25.9101 25.517 27.0431C25.518 27.0461 25.52 27.0481 25.521 27.0511C25.731 27.0071 25.937 26.9581 26.144 26.9111C26.178 26.9031 26.213 26.8961 26.247 26.8881C26.338 26.8671 26.431 26.8491 26.52 26.8271C26.518 26.8231 26.515 26.8191 26.513 26.8151C25.909 25.4101 24.881 24.2371 23.53 23.4571L23.531 23.4561Z" fill="#FFAD00"/>
<path d="M24.86 27.1799V27.1899C24.51 27.2499 24.15 27.2999 23.79 27.3499C23.4 26.6999 22.87 26.1499 22.2 25.7599C21.41 25.3099 20.53 25.1099 19.64 25.1699C20.21 25.7299 20.72 26.3699 21.13 27.0799C21.22 27.2399 21.21 27.4399 21.12 27.5899C20.85 27.5999 20.57 27.6099 20.29 27.6099C20.29 27.5999 20.27 27.5899 20.26 27.5799C19.57 26.3799 18.59 25.4099 17.42 24.7299C17.67 24.8299 17.92 24.9099 18.18 24.9599C18.59 25.0299 19 25.0399 19.43 24.9999C20.05 24.9299 20.69 24.7199 21.33 24.3599C21.8 24.4799 22.27 24.6499 22.7 24.8999C23.64 25.4399 24.38 26.2299 24.86 27.1799Z" fill="#FFAD00"/>
<path d="M10.847 21.1667C10.791 21.2447 10.742 21.3297 10.688 21.4107C10.586 21.5627 10.481 21.7127 10.388 21.8737C10.25 22.1127 10.332 22.4187 10.571 22.5567C10.65 22.6027 10.736 22.6237 10.821 22.6237C10.994 22.6237 11.162 22.5337 11.255 22.3737C12.024 21.0407 13.167 20.0577 14.473 19.4667C14.565 19.0547 14.72 18.6387 14.936 18.2207C14.926 18.2237 14.916 18.2267 14.906 18.2307C13.317 18.7467 11.88 19.7417 10.848 21.1677L10.847 21.1667Z" fill="#FFAD00"/>
<path d="M16.65 24.3498C16.29 24.1898 15.91 24.0498 15.52 23.9398C13.51 23.3998 11.4 23.6798 9.59001 24.7198C9.35001 24.8598 9.05001 24.7798 8.91001 24.5398C8.77001 24.2998 8.85001 23.9898 9.09001 23.8598C9.90001 23.3898 10.76 23.0598 11.65 22.8698C11.65 22.7898 11.66 22.7098 11.71 22.6298C12.34 21.5298 13.27 20.6598 14.38 20.0898C14.35 20.4798 14.36 20.8598 14.43 21.2298C13.83 21.6198 13.3 22.1098 12.88 22.6998C13.1 22.6898 13.32 22.6798 13.54 22.6798C13.85 22.3198 14.2 22.0098 14.57 21.7498C14.68 22.0698 14.83 22.3798 15.01 22.6798C14.96 22.7198 14.9 22.7398 14.86 22.7798C14.94 22.7898 15.02 22.8198 15.1 22.8298C15.28 23.1098 15.5 23.3798 15.75 23.6298C16.03 23.9098 16.33 24.1498 16.65 24.3498Z" fill="#FFAD00"/>
<path d="M27.643 19.6488C26.865 19.4398 26.076 19.3468 25.291 19.3528C25.171 19.6928 25.033 20.0328 24.871 20.3678C25.706 20.3148 26.552 20.3918 27.384 20.6148C29.4 21.1548 31.084 22.4468 32.127 24.2548C32.154 24.3018 32.197 24.3318 32.237 24.3638C32.244 24.3698 32.249 24.3778 32.257 24.3838C32.524 24.2068 32.777 24.0228 33.02 23.8348C33.016 23.8248 33.012 23.8138 33.009 23.8028C33.005 23.7868 33.002 23.7698 32.993 23.7548C31.816 21.7168 29.916 20.2578 27.642 19.6498L27.643 19.6488Z" fill="#FFAD00"/>
<path d="M31.62 24.7901C31.36 24.9401 31.09 25.08 30.82 25.22C30.82 25.21 30.81 25.2101 30.8 25.2001C30.76 25.1701 30.72 25.1401 30.69 25.0901C29.39 22.8401 26.88 21.7301 24.46 22.0801C24.76 22.2601 25.05 22.4601 25.33 22.6801C25.34 22.6801 25.35 22.6801 25.35 22.6701C27.31 22.6701 29.14 23.7201 30.11 25.4201C30.13 25.4501 30.14 25.4901 30.15 25.5301C30.15 25.5401 30.16 25.54 30.16 25.55C29.87 25.69 29.57 25.8101 29.27 25.9401C29.26 25.9301 29.25 25.9301 29.25 25.9201C28.66 24.9001 27.68 24.1801 26.59 23.8601C27.22 24.5801 27.74 25.4101 28.12 26.3401V26.3501C27.97 26.4001 27.81 26.4501 27.65 26.5001C27.63 26.5001 27.61 26.5101 27.59 26.5201C27.45 26.5601 27.31 26.6101 27.16 26.6501V26.64C26.41 24.85 25.04 23.4601 23.38 22.6401C23.49 22.5201 23.59 22.3801 23.7 22.2501C23.8 22.1101 23.9 21.9801 24 21.8401C24.17 21.5901 24.34 21.3401 24.49 21.0901C27.25 20.7501 30.08 22.0301 31.55 24.5901C31.58 24.6401 31.6 24.7001 31.6 24.7601C31.61 24.7701 31.61 24.7801 31.62 24.7901Z" fill="#FFAD00"/>
<path d="M9.92502 25.2949C9.83902 25.3449 9.78202 25.4199 9.73902 25.5029L9.73602 25.5059C9.75302 25.5139 9.77102 25.5209 9.78802 25.5279C9.86302 25.5629 9.94402 25.5939 10.021 25.6289C10.277 25.7449 10.533 25.8609 10.802 25.9669C10.805 25.9659 10.809 25.9649 10.812 25.9629C13.371 24.7159 16.436 25.4069 18.224 27.5589C18.229 27.5589 18.235 27.5589 18.241 27.5589C18.653 27.5839 19.072 27.5949 19.492 27.6019C17.44 24.4319 13.233 23.3829 9.92502 25.2929V25.2949Z" fill="#FFAD00"/>
<path d="M16.268 26.749C14.883 25.944 13.227 25.801 11.741 26.302L11.737 26.303C11.766 26.313 11.796 26.321 11.824 26.33C12.147 26.439 12.475 26.543 12.811 26.639C12.855 26.652 12.9 26.663 12.945 26.675C14 26.971 15.117 27.202 16.285 27.36C16.346 27.368 16.404 27.38 16.465 27.388V27.387C16.57 27.156 16.493 26.879 16.269 26.748L16.268 26.749Z" fill="#FFAD00"/>
<path d="M18.011 15.0759C17.823 15.1939 17.639 15.3169 17.458 15.4469C17.105 15.6999 16.771 15.9749 16.458 16.2679C16.421 16.3029 16.383 16.3359 16.347 16.3709C16.312 16.4039 16.275 16.4359 16.241 16.4689C16.121 16.5889 16.013 16.7099 15.905 16.8309C15.497 17.2889 15.176 17.7539 14.935 18.2189C14.718 18.6359 14.564 19.0529 14.472 19.4649C14.425 19.6729 14.396 19.8789 14.379 20.0839C14.347 20.4739 14.363 20.8579 14.434 21.2289C14.468 21.4059 14.517 21.5789 14.573 21.7499C14.679 22.0729 14.825 22.3829 15.005 22.6789C15.036 22.7299 15.065 22.7809 15.098 22.8299C15.285 23.1129 15.501 23.3819 15.752 23.6319C16.03 23.9099 16.332 24.1449 16.65 24.3439C16.896 24.4989 17.153 24.6289 17.418 24.7319C17.667 24.8289 17.922 24.9049 18.184 24.9539C18.587 25.0289 19.005 25.0409 19.43 24.9939C20.054 24.9239 20.694 24.7169 21.334 24.3589C21.58 24.2209 21.826 24.0609 22.07 23.8759C22.354 23.6619 22.636 23.4219 22.915 23.1429L22.917 23.1409C23.076 22.9819 23.23 22.8159 23.379 22.6429C23.49 22.5149 23.594 22.3809 23.699 22.2469C23.804 22.1119 23.904 21.9749 24.002 21.8349C24.174 21.5899 24.337 21.3399 24.487 21.0829C24.624 20.8469 24.754 20.6079 24.871 20.3659C25.033 20.0309 25.171 19.6909 25.291 19.3509C25.918 17.5759 25.936 15.8079 25.048 14.7139C24.992 14.6449 24.94 14.5709 24.877 14.5069C23.775 13.4049 21.805 13.4269 19.86 14.1559C19.576 14.2629 19.292 14.3799 19.012 14.5149C18.671 14.6799 18.338 14.8689 18.012 15.0729L18.011 15.0759ZM21.256 18.1299C22.296 19.1699 22.296 20.8549 21.256 21.8949C20.216 22.9349 18.531 22.9349 17.491 21.8949C16.451 20.8549 16.451 19.1699 17.491 18.1299C18.531 17.0899 20.216 17.0899 21.256 18.1299Z" fill="white"/>
<path d="M17.491 18.1301C16.451 19.1701 16.451 20.8551 17.491 21.8951C18.531 22.9351 20.216 22.9351 21.256 21.8951C22.296 20.8551 22.296 19.1701 21.256 18.1301C20.216 17.0901 18.531 17.0901 17.491 18.1301Z" fill="#FFCD00"/>
</svg>
