<svg width="40" height="40" viewBox="0 0 40 40" fill="none" xmlns="http://www.w3.org/2000/svg">
<path d="M13.663 6.48906C13.663 5.82606 13.126 5.28906 12.463 5.28906H7.83599C7.17299 5.28906 6.63599 5.82606 6.63599 6.48906V7.53106H13.663V6.48906Z" fill="#8595AA"/>
<path d="M20 15.4321C16.476 15.4321 13.608 18.3001 13.608 21.8251C13.608 25.3501 16.475 28.2161 20 28.2161C23.525 28.2161 26.392 25.3491 26.392 21.8251C26.392 18.3011 23.525 15.4321 20 15.4321ZM20 25.0241C18.236 25.0241 16.801 23.5881 16.801 21.8241C16.801 21.3991 16.888 20.9961 17.039 20.6251C16.703 20.3921 16.468 20.0221 16.468 19.5831C16.468 18.8711 17.047 18.2911 17.759 18.2911C18.198 18.2911 18.568 18.5251 18.801 18.8621C19.172 18.7111 19.576 18.6241 20 18.6241C21.764 18.6241 23.2 20.0601 23.2 21.8241C23.2 23.5881 21.765 25.0241 20 25.0241Z" fill="#333D4B"/>
<path d="M33.7001 7.53076H30.6551L31.076 10.4368C31.205 11.3288 31.744 12.0288 32.42 12.1798L35.357 12.8388C35.605 12.8948 35.781 13.1148 35.781 13.3688C35.781 13.6228 35.605 13.8438 35.357 13.8988L32.42 14.5568C31.745 14.7078 31.205 15.4088 31.076 16.2988L30.5471 19.9588C30.5091 20.2258 30.279 20.4238 30.01 20.4238C29.7411 20.4238 29.511 20.2258 29.473 19.9578L28.945 16.2988C28.816 15.4078 28.276 14.7078 27.601 14.5568L24.664 13.8988C24.416 13.8428 24.24 13.6228 24.24 13.3688C24.24 13.1148 24.416 12.8938 24.664 12.8388L27.601 12.1798C28.2771 12.0288 28.816 11.3278 28.945 10.4378L29.365 7.53076H6.30005C4.09105 7.53076 2.30005 9.32176 2.30005 11.5308V31.6658C2.30005 33.8658 4.10005 35.6658 6.30005 35.6658H33.7001C35.909 35.6658 37.7001 33.8748 37.7001 31.6658V11.5308C37.7001 9.32176 35.909 7.53076 33.7001 7.53076ZM20 29.7148C15.648 29.7148 12.108 26.1748 12.108 21.8238C12.108 17.4728 15.648 13.9308 20 13.9308C24.3521 13.9308 27.892 17.4718 27.892 21.8238C27.892 26.1758 24.3521 29.7148 20 29.7148Z" fill="#4E5968"/>
<path d="M20 18.6226C19.576 18.6226 19.1721 18.7096 18.8011 18.8606C18.9461 19.0696 19.05 19.3086 19.05 19.5816C19.05 20.2936 18.4711 20.8726 17.7591 20.8726C17.4861 20.8726 17.247 20.7686 17.038 20.6236C16.887 20.9946 16.8 21.3986 16.8 21.8226C16.8 23.5866 18.2351 25.0226 19.9991 25.0226C21.7631 25.0226 23.199 23.5866 23.199 21.8226C23.199 20.0586 21.765 18.6226 20 18.6226Z" fill="#4E5968"/>
<path d="M19.05 19.582C19.05 19.309 18.946 19.07 18.801 18.861C18.568 18.525 18.198 18.29 17.759 18.29C17.047 18.29 16.468 18.869 16.468 19.582C16.468 20.021 16.703 20.391 17.039 20.624C17.248 20.769 17.487 20.873 17.76 20.873C18.472 20.873 19.051 20.294 19.051 19.582H19.05Z" fill="white"/>
<path d="M20 13.9321C15.648 13.9321 12.108 17.4731 12.108 21.8251C12.108 26.1771 15.648 29.7161 20 29.7161C24.352 29.7161 27.892 26.1761 27.892 21.8251C27.892 17.4741 24.352 13.9321 20 13.9321ZM20 28.2151C16.476 28.2151 13.608 25.3481 13.608 21.8241C13.608 18.3001 16.475 15.4311 20 15.4311C23.525 15.4311 26.392 18.2991 26.392 21.8241C26.392 25.3491 23.525 28.2151 20 28.2151Z" fill="#D0D6DE"/>
<path d="M35.78 13.3701C35.78 13.6201 35.6 13.8401 35.36 13.9001L32.42 14.5601C31.74 14.7101 31.2 15.4101 31.08 16.3001L30.55 19.9601C30.51 20.2301 30.28 20.4301 30.01 20.4301C29.74 20.4301 29.51 20.2301 29.47 19.9601L28.94 16.3001C28.81 15.4101 28.27 14.7101 27.6 14.5601L24.66 13.9001C24.42 13.8401 24.24 13.6201 24.24 13.3701C24.24 13.1201 24.42 12.9001 24.66 12.8401L27.6 12.1801C28.28 12.0301 28.81 11.3301 28.94 10.4401L29.36 7.53006L29.47 6.78006C29.51 6.51006 29.74 6.31006 30.01 6.31006C30.28 6.31006 30.51 6.51006 30.55 6.78006L30.65 7.53006L31.08 10.4401C31.2 11.3301 31.74 12.0301 32.42 12.1801L35.36 12.8401C35.6 12.9001 35.78 13.1201 35.78 13.3701Z" fill="#FFE63B"/>
</svg>
