<svg width="40" height="40" viewBox="0 0 40 40" fill="none" xmlns="http://www.w3.org/2000/svg">
<g clip-path="url(#clip0_116_648)">
<path d="M32.3241 13.196C30.8231 14.697 28.5351 15.07 26.9411 15.127C25.8401 15.167 25.0121 14.339 25.0511 13.237C25.1091 11.643 25.4821 9.35502 26.9821 7.85402C28.4831 6.35302 30.7711 5.98002 32.3651 5.92302C33.4661 5.88302 34.2941 6.71102 34.2551 7.81302C34.1971 9.40702 33.8241 11.695 32.3241 13.196Z" fill="#006956"/>
<path d="M29.3731 8.77701C29.3731 10.899 28.0191 12.781 26.9321 13.949C26.1821 14.756 25.0101 14.756 24.2601 13.949C23.1731 12.781 21.8191 10.899 21.8191 8.77701C21.8191 6.65501 23.1731 4.77301 24.2601 3.60501C25.0101 2.79801 26.1821 2.79801 26.9321 3.60501C28.0191 4.77301 29.3731 6.65501 29.3731 8.77701Z" fill="#006956"/>
<path d="M31.286 18.408C29.164 18.408 27.282 17.054 26.114 15.967C25.307 15.217 25.307 14.045 26.114 13.295C27.282 12.208 29.164 10.854 31.286 10.854C33.408 10.854 35.29 12.208 36.458 13.295C37.265 14.045 37.265 15.217 36.458 15.967C35.29 17.054 33.408 18.408 31.286 18.408Z" fill="#006956"/>
<path d="M28.095 29.043C24.559 32.579 12.565 36.158 6.69701 36.968C4.52201 37.268 2.66901 35.415 2.96901 33.24C3.77801 27.372 7.35801 15.377 10.894 11.842C15.949 6.78703 22.196 8.24103 26.946 12.991C31.696 17.741 33.151 23.988 28.095 29.043Z" fill="#F77F00"/>
</g>
<defs>
<clipPath id="clip0_116_648">
<rect width="40" height="40" fill="white"/>
</clipPath>
</defs>
</svg>
