<svg width="40" height="40" viewBox="0 0 40 40" fill="none" xmlns="http://www.w3.org/2000/svg">
<g clip-path="url(#clip0_116_682)">
<path d="M13.2821 23.4788H31.9331C32.0631 23.4788 32.1871 23.5008 32.3131 23.5168L35.4421 9.27879C35.6921 8.13879 34.8251 7.06079 33.6581 7.06079H8.9021L12.3441 22.7248C12.4421 23.1688 12.8271 23.4788 13.2821 23.4788Z" fill="#CBCFD2"/>
<path d="M34.6838 27.512C34.4018 27.452 34.1099 27.418 33.8099 27.418C32.3099 27.418 31.0038 28.213 30.2638 29.398C29.8628 30.041 29.6208 30.794 29.6208 31.607C29.6208 33.92 31.4969 35.796 33.8099 35.796C36.1229 35.796 37.9988 33.92 37.9988 31.607C37.9988 29.593 36.5778 27.914 34.6838 27.512ZM33.8099 33.283C32.8849 33.283 32.1338 32.533 32.1338 31.607C32.1338 30.681 32.8839 29.931 33.8099 29.931C34.7359 29.931 35.4858 30.681 35.4858 31.607C35.4858 32.533 34.7359 33.283 33.8099 33.283Z" fill="#313D4C"/>
<path d="M11.0779 27.418C11.0089 27.418 10.9449 27.435 10.8769 27.438C8.65892 27.545 6.88892 29.362 6.88892 31.607C6.88892 33.92 8.76492 35.796 11.0779 35.796C13.3909 35.796 15.2669 33.92 15.2669 31.607C15.2669 30.793 15.0249 30.04 14.6239 29.398C13.8839 28.213 12.5779 27.418 11.0779 27.418ZM11.0779 33.283C10.1529 33.283 9.40192 32.533 9.40192 31.607C9.40192 30.681 10.1519 29.931 11.0779 29.931C12.0039 29.931 12.7539 30.681 12.7539 31.607C12.7539 32.533 12.0039 33.283 11.0779 33.283Z" fill="#313D4C"/>
<path d="M33.811 27.4179C34.111 27.4179 34.402 27.4519 34.685 27.5119C34.816 27.1779 34.894 26.8179 34.894 26.4379C34.894 24.9359 33.765 23.7049 32.314 23.5159C32.188 23.4999 32.064 23.4779 31.934 23.4779H13.282C12.828 23.4779 12.442 23.1679 12.344 22.7239L8.90202 7.05988L8.56502 5.52688C8.26302 4.15888 7.07502 3.20288 5.67402 3.20288H1.99902C1.44602 3.20288 0.999023 3.65088 0.999023 4.20288C0.999023 4.75488 1.44602 5.20288 1.99902 5.20288H5.67402C6.12802 5.20288 6.51402 5.51288 6.61202 5.95688L10.391 23.1539C10.693 24.5219 11.881 25.4779 13.282 25.4779H31.933C32.462 25.4779 32.893 25.9089 32.893 26.4379C32.893 26.9669 32.462 27.3969 31.933 27.3969H11.078C11.007 27.3969 10.944 27.4229 10.877 27.4379C10.945 27.4349 11.009 27.4179 11.078 27.4179C12.578 27.4179 13.884 28.2129 14.624 29.3979H30.265C31.005 28.2129 32.311 27.4179 33.811 27.4179Z" fill="#6B7683"/>
<path d="M33.811 29.9319C32.886 29.9319 32.135 30.6819 32.135 31.6079C32.135 32.5339 32.885 33.2839 33.811 33.2839C34.737 33.2839 35.487 32.5339 35.487 31.6079C35.487 30.6819 34.737 29.9319 33.811 29.9319Z" fill="#6B7683"/>
<path d="M11.0781 29.9319C10.1531 29.9319 9.4021 30.6819 9.4021 31.6079C9.4021 32.5339 10.1521 33.2839 11.0781 33.2839C12.0041 33.2839 12.7541 32.5339 12.7541 31.6079C12.7541 30.6819 12.0041 29.9319 11.0781 29.9319Z" fill="#6B7683"/>
</g>
<defs>
<clipPath id="clip0_116_682">
<rect width="40" height="40" fill="white"/>
</clipPath>
</defs>
</svg>
