<svg width="60" height="60" viewBox="0 0 60 60" fill="none" xmlns="http://www.w3.org/2000/svg">
<g clip-path="url(#clip0_116_566)">
<path d="M47.6581 55.365L46.9261 52.389C46.6411 51.231 46.2661 50.0865 45.6721 49.053C44.2261 46.533 41.9431 44.5665 39.1846 43.518L33.4561 41.3415C32.7391 41.0685 32.0026 40.8675 31.2601 40.7115V43.125C31.2601 44.775 29.9251 46.11 28.2751 46.11C26.6251 46.11 25.2901 44.775 25.2901 43.125V40.707C24.5401 40.863 23.7961 41.067 23.0716 41.343L17.3431 43.5195C15.2746 44.3055 13.4731 45.609 12.0916 47.274C10.7761 48.861 9.98111 50.814 9.56261 52.833L9.03311 55.392C8.94161 55.8345 9.27911 56.2515 9.73211 56.2515H46.9651C47.4286 56.2515 47.7691 55.815 47.6581 55.365Z" fill="#E8E8E8"/>
<path d="M28.2751 46.11C29.9251 46.11 31.2601 44.775 31.2601 43.125V39.015C35.0251 38.085 38.1301 35.43 39.6601 31.935C42.3901 31.92 44.6101 29.835 44.6101 27.27C44.6101 25.6215 43.6816 24.1815 42.3031 23.349C41.9776 23.298 41.6221 23.7165 41.2021 23.9535C41.0371 24.024 40.8691 24.075 40.7251 24.084C37.5181 24.297 33.5116 22.503 30.2416 20.61C29.5006 20.5815 28.7506 20.5635 27.9886 20.5635C25.1851 20.5635 22.5106 20.7615 20.0551 21.1185L16.3006 25.32C16.1356 25.5045 15.8431 25.4565 15.7246 25.239C14.9296 23.796 14.1151 23.634 13.7971 23.631C13.7941 23.631 13.7941 23.628 13.7911 23.628C12.6496 24.486 11.9116 25.7955 11.9116 27.2685C11.9116 29.8335 14.1166 31.9035 16.8616 31.9335C18.4066 35.4285 21.5116 38.0835 25.2916 39.0135V43.1235C25.2916 44.7735 26.6266 46.1085 28.2766 46.1085L28.2751 46.11Z" fill="#FFCCA8"/>
<path d="M15.7232 25.2389C15.8432 25.4564 16.1342 25.5044 16.2992 25.3199L20.0537 21.1184C17.7077 21.4589 15.5611 21.9434 13.7071 22.5464C13.6921 22.5509 13.6817 22.5419 13.6682 22.5404C13.6577 22.8554 13.6397 23.1719 13.6502 23.4809C13.6532 23.5589 13.7132 23.6234 13.7897 23.6279C13.7927 23.6279 13.7926 23.6309 13.7956 23.6309C14.1136 23.6339 14.9282 23.7959 15.7232 25.2389Z" fill="#333333"/>
<path d="M30.2403 20.6099C33.5118 22.5044 37.5183 24.2969 40.7238 24.0839C40.8693 24.0749 41.0358 24.0239 41.2008 23.9534C41.6208 23.7164 41.9763 23.2994 42.3018 23.3489C42.3168 23.3504 42.3318 23.3414 42.3453 23.3459C42.3498 23.0729 42.3228 22.8089 42.3108 22.5404C42.2958 22.5434 42.2823 22.5524 42.2658 22.5479C38.9988 21.4859 34.8348 20.7854 30.2403 20.6099Z" fill="#333333"/>
<path d="M24.7652 27.9044C25.4967 27.9044 26.0897 27.1925 26.0897 26.3144C26.0897 25.4362 25.4967 24.7244 24.7652 24.7244C24.0337 24.7244 23.4407 25.4362 23.4407 26.3144C23.4407 27.1925 24.0337 27.9044 24.7652 27.9044Z" fill="black"/>
<path d="M31.7627 27.9044C32.4942 27.9044 33.0872 27.1925 33.0872 26.3144C33.0872 25.4362 32.4942 24.7244 31.7627 24.7244C31.0312 24.7244 30.4382 25.4362 30.4382 26.3144C30.4382 27.1925 31.0312 27.9044 31.7627 27.9044Z" fill="black"/>
<path d="M29.913 32.5845C30.2115 32.5845 30.4231 32.871 30.3436 33.1575C30.0931 34.0695 29.2576 34.74 28.2646 34.74C27.2716 34.74 26.4361 34.0695 26.1856 33.1575C26.1061 32.871 26.3176 32.5845 26.6161 32.5845H29.913Z" fill="#5C2F17"/>
<path d="M28.2797 43.716C27.0452 43.716 25.9592 43.1025 25.2932 42.168V43.128C25.2932 44.7765 26.6297 46.1145 28.2797 46.1145C29.9297 46.1145 31.2662 44.778 31.2662 43.128V42.168C30.6002 43.101 29.5142 43.716 28.2797 43.716Z" fill="#4C6DB5"/>
<path d="M23.742 49.3424C24.307 49.3424 24.765 48.8844 24.765 48.3194C24.765 47.7544 24.307 47.2964 23.742 47.2964C23.177 47.2964 22.719 47.7544 22.719 48.3194C22.719 48.8844 23.177 49.3424 23.742 49.3424Z" fill="#4C6DB5"/>
<path d="M33.0887 49.3424C33.6537 49.3424 34.1117 48.8844 34.1117 48.3194C34.1117 47.7544 33.6537 47.2964 33.0887 47.2964C32.5237 47.2964 32.0657 47.7544 32.0657 48.3194C32.0657 48.8844 32.5237 49.3424 33.0887 49.3424Z" fill="#4C6DB5"/>
<path d="M23.742 55.2059C24.307 55.2059 24.765 54.7479 24.765 54.1829C24.765 53.6179 24.307 53.1599 23.742 53.1599C23.177 53.1599 22.719 53.6179 22.719 54.1829C22.719 54.7479 23.177 55.2059 23.742 55.2059Z" fill="#4C6DB5"/>
<path d="M33.0887 55.2059C33.6537 55.2059 34.1117 54.7479 34.1117 54.1829C34.1117 53.6179 33.6537 53.1599 33.0887 53.1599C32.5237 53.1599 32.0657 53.6179 32.0657 54.1829C32.0657 54.7479 32.5237 55.2059 33.0887 55.2059Z" fill="#4C6DB5"/>
<path d="M46.6351 13.584C46.6351 11.0145 44.5516 8.9325 41.9836 8.9325C41.8741 8.9325 41.7721 8.958 41.6641 8.964C40.5601 7.2645 38.4766 6.1035 36.0541 6.1035C35.3026 6.1035 34.5916 6.2355 33.9196 6.4395C32.7331 4.8165 30.8296 3.75 28.6651 3.75C26.3026 3.75 24.2536 5.0175 23.1091 6.897C22.1461 6.405 21.0346 6.1035 19.8331 6.1035C17.4196 6.1035 15.3391 7.2585 14.2336 8.949C14.1796 8.9475 14.1286 8.9325 14.0746 8.9325C11.5051 8.9325 9.4231 11.016 9.4231 13.584C9.4231 15.9825 11.2456 17.934 13.5766 18.186V22.4475C13.5766 22.4835 13.5931 22.5135 13.6171 22.533C13.5916 22.5135 13.5766 22.4835 13.5766 22.4475V18.2235C17.3866 16.9635 22.4431 16.1955 27.9901 16.1955C33.5371 16.1955 38.5921 16.9635 42.4021 18.2235V22.4475V18.195C44.7736 17.9805 46.6366 16.011 46.6366 13.5855L46.6351 13.584Z" fill="white"/>
<path d="M27.9872 16.1956C22.4402 16.1956 17.3852 16.9636 13.5752 18.2236V22.4476C13.5752 22.4836 13.5917 22.5136 13.6157 22.5331C13.6307 22.5436 13.6502 22.5406 13.6682 22.5421C13.6817 22.5421 13.6922 22.5526 13.7072 22.5481C15.5612 21.9451 17.7077 21.4606 20.0537 21.1201C22.5092 20.7631 25.1837 20.5651 27.9872 20.5651C28.7492 20.5651 29.4992 20.5831 30.2402 20.6116C34.8332 20.7871 39.0002 21.4876 42.2672 22.5496C42.3347 22.5721 42.4007 22.5211 42.4007 22.4491V18.2251C38.5907 16.9651 33.5342 16.1971 27.9872 16.1971V16.1956Z" fill="#E8E8E8"/>
<path d="M48.8791 34.0201C46.8466 32.9611 44.1256 33.8401 42.5011 36.9601C41.4706 38.9386 41.6566 41.2471 42.1351 42.7786C42.4186 43.6876 42.2536 44.6791 41.7931 45.5131L41.3896 46.2046L35.5261 56.2486H39.1756L43.3456 47.2231L43.7701 46.3051C44.1976 45.4366 44.9596 44.8081 45.8611 44.4556C47.2951 43.8946 49.1626 42.7876 50.1271 40.9366C51.7531 37.8166 50.9131 35.0791 48.8806 34.0186L48.8791 34.0201Z" fill="#807057"/>
</g>
<defs>
<clipPath id="clip0_116_566">
<rect width="60" height="60" fill="white"/>
</clipPath>
</defs>
</svg>
