<svg width="40" height="40" viewBox="0 0 40 40" fill="none" xmlns="http://www.w3.org/2000/svg">
<g clip-path="url(#clip0_465_606)">
<path d="M9.50703 27.5614L9.08203 23.4224L10.221 34.9364C10.328 36.3854 11.535 37.5064 12.988 37.5064H26.949C28.402 37.5064 29.609 36.3854 29.716 34.9364L30.855 23.4224L30.43 27.5614H9.50703Z" fill="#D0D5DA"/>
<path d="M7.97101 12.1982L8.68301 19.3862H31.255L31.966 12.1982H20.616H18.093H7.97101Z" fill="#D0D5DA"/>
<path d="M32.058 8.21484H7.94202C6.84702 8.21484 5.96002 9.10284 5.96002 10.1968C5.96002 11.2908 6.84702 12.1788 7.94202 12.1788H32.059C33.154 12.1788 34.041 11.2918 34.041 10.1968C34.041 9.10184 33.153 8.21484 32.058 8.21484Z" fill="#E5E9EE"/>
<path d="M22.686 4.86802C22.79 4.49902 23.088 4.21202 23.46 4.12102L30.066 2.51102C30.749 2.34502 31.167 1.65702 31.001 0.97402C30.835 0.29002 30.143 -0.13498 29.464 0.0390202L22.857 1.64902C21.594 1.95702 20.591 2.92702 20.237 4.17702L19.096 8.21602H21.74L22.685 4.86902L22.686 4.86802Z" fill="#E32939"/>
<path d="M8.66803 19.3862L9.08203 23.4222L9.50703 27.5612H30.43L30.855 23.4222L31.27 19.3862H31.255H8.68303H8.66803Z" fill="#E32939"/>
</g>
<defs>
<clipPath id="clip0_465_606">
<rect width="40" height="40" fill="white"/>
</clipPath>
</defs>
</svg>
