<svg width="40" height="40" viewBox="0 0 40 40" fill="none" xmlns="http://www.w3.org/2000/svg">
<g clip-path="url(#clip0_314_620)">
<path d="M26.3399 5.4461L28.0359 9.5011L8.05591 17.1921C8.05591 17.1921 14.2859 7.1841 24.6889 4.5401C25.3639 4.3681 26.0549 4.7641 26.3399 5.4461Z" fill="#495B73"/>
<path d="M29.6459 30.771L21.6459 35.316C20.8249 35.782 19.8129 35.327 19.5439 34.371L17.1279 25.79L29.6459 30.771Z" fill="#495B73"/>
<path d="M2.53395 10.4601L16.586 21.2361L3.16095 32.8811C2.83995 33.1591 2.37995 32.8051 2.53095 32.3921C3.79495 28.9271 6.06595 20.3271 1.93795 10.9931C1.76095 10.5931 2.19795 10.2021 2.53395 10.4591V10.4601Z" fill="#495B73"/>
<path d="M6.8739 18.4072C5.4589 19.9582 5.5279 22.4612 7.0259 23.9192C10.6089 27.4072 17.3909 33.0432 23.6359 32.8432C29.2099 32.6652 34.0039 27.8482 36.8539 24.1942C38.6019 21.9522 38.5029 18.3552 36.6349 16.2292C33.5889 12.7632 28.5389 8.26022 22.9639 8.43822C16.7189 8.63722 10.2589 14.6962 6.8749 18.4062L6.8739 18.4072Z" fill="#ABB7C7"/>
<path d="M24.1311 8.47414C29.2381 8.89414 33.8031 13.0071 36.6341 16.2291C38.5021 18.3551 38.6011 21.9521 36.8531 24.1941C34.2041 27.5911 29.8731 31.9881 24.7991 32.7331C23.8681 29.0351 23.2951 24.9511 23.1761 20.6441C23.0571 16.3371 23.4041 12.2231 24.1301 8.47314L24.1311 8.47414Z" fill="#65778E"/>
<path d="M31.876 20.1051C32.8784 20.1051 33.691 19.2925 33.691 18.2901C33.691 17.2877 32.8784 16.4751 31.876 16.4751C30.8736 16.4751 30.061 17.2877 30.061 18.2901C30.061 19.2925 30.8736 20.1051 31.876 20.1051Z" fill="black"/>
<path d="M25.0221 18.3081L16.9011 16.1871C16.5331 16.0911 16.1741 16.3681 16.1741 16.7481V23.2871C16.1741 23.6621 16.5251 23.9391 16.8901 23.8501L25.0211 21.8851L25.0221 18.3081Z" fill="#65778E"/>
</g>
<defs>
<clipPath id="clip0_314_620">
<rect width="40" height="40" fill="white"/>
</clipPath>
</defs>
</svg>
