<svg width="40" height="40" viewBox="0 0 40 40" fill="none" xmlns="http://www.w3.org/2000/svg">
<g clip-path="url(#clip0_116_621)">
<path d="M18.497 13.8431L23.484 9.44812C24.101 8.90412 25.027 8.90412 25.644 9.44812L35.78 18.3811C36.132 18.6911 36.333 19.1371 36.333 19.6061V32.0771C36.333 33.8811 34.87 35.3441 33.066 35.3441H6.93302C5.12902 35.3441 3.66602 33.8811 3.66602 32.0771V6.29312C3.66602 4.88712 5.32402 4.13812 6.37902 5.06812L16.336 13.8431C16.953 14.3871 17.88 14.3871 18.497 13.8431Z" fill="#93C9FF"/>
<path d="M6.37999 4.9719L16.337 13.7469C16.954 14.2909 17.88 14.2909 18.497 13.7469L23.484 9.3519C24.101 8.8079 25.027 8.8079 25.644 9.3519L35.78 18.2839C36.132 18.5939 36.333 19.0399 36.333 19.5089C36.333 21.1659 34.378 22.0489 33.135 20.9529L25.644 14.3509C25.027 13.8069 24.101 13.8069 23.484 14.3509L18.497 18.7459C17.88 19.2899 16.954 19.2899 16.337 18.7459L3.66699 7.5809V6.1979C3.66699 4.7919 5.32599 4.0419 6.37999 4.9719Z" fill="#007FF3"/>
</g>
<defs>
<clipPath id="clip0_116_621">
<rect width="40" height="40" fill="white"/>
</clipPath>
</defs>
</svg>
