<svg width="40" height="41" viewBox="0 0 40 41" fill="none" xmlns="http://www.w3.org/2000/svg">
<g clip-path="url(#clip0_465_676)">
<path d="M26.834 18.3213H10.042V11.6763C10.042 7.04627 13.809 3.28027 18.438 3.28027C23.067 3.28027 26.834 7.04727 26.834 11.6763V18.3213ZM12.953 15.4093H23.922V11.6773C23.922 8.65327 21.462 6.19327 18.438 6.19327C15.414 6.19327 12.954 8.65327 12.954 11.6773V15.4093H12.953Z" fill="#6B7683"/>
<path d="M29.383 13.6704H7.49298C5.28384 13.6704 3.49298 15.4613 3.49298 17.6704V32.5864C3.49298 34.7955 5.28384 36.5864 7.49298 36.5864H29.383C31.5921 36.5864 33.383 34.7955 33.383 32.5864V17.6704C33.383 15.4613 31.5921 13.6704 29.383 13.6704Z" fill="#AFB7C0"/>
<path d="M9.00795 30.4084C8.60195 29.6964 8.69495 28.7774 9.30295 28.1704C10.031 27.4424 11.212 27.4424 11.94 28.1704C12.668 28.8984 12.668 30.0794 11.94 30.8074C11.333 31.4144 10.413 31.5084 9.70195 31.1024L6.40595 34.3984L13.098 33.3734C13.656 33.2884 14.15 32.9664 14.453 32.4904L18.984 25.3934L14.718 21.1274L7.62095 25.6584C7.14495 25.9624 6.82395 26.4554 6.73795 27.0134L5.71295 33.7054L9.00895 30.4094L9.00795 30.4084Z" fill="#E5E9EE"/>
<path d="M33.1499 2.7792L27.0519 6.7872C21.2799 10.5812 16.5869 15.8032 13.4299 21.9472L18.1609 26.6792L18.2139 26.6512C24.3069 23.4942 29.4859 18.8242 33.2559 13.0902L37.3029 6.9332C37.7639 6.2322 37.6689 5.3042 37.0759 4.7112L35.3719 3.0072C34.7789 2.4142 33.8509 2.3182 33.1499 2.7792Z" fill="#424F57"/>
</g>
<defs>
<clipPath id="clip0_465_676">
<rect width="40" height="40" fill="white" transform="translate(0 0.5)"/>
</clipPath>
</defs>
</svg>
