<svg width="40" height="40" viewBox="0 0 40 40" fill="none" xmlns="http://www.w3.org/2000/svg">
<g clip-path="url(#clip0_116_665)">
<path d="M36.6901 23.2528C34.1321 28.6618 24.6291 28.0038 20.6091 27.7848C16.5891 27.5658 5.04011 24.9338 3.13911 20.6948C2.81111 19.9638 2.62011 19.2408 2.54311 18.5378H2.53711L2.95211 24.2368C3.12311 26.3568 4.26211 28.3088 6.08511 29.4038C10.3211 31.9498 17.5881 33.4758 20.6081 33.6398C24.2861 33.8408 32.5521 34.4078 35.8921 30.3618C36.4121 29.7318 36.7021 28.9428 36.7691 28.1288C36.9151 26.3488 37.2181 22.6418 37.3351 21.2158C37.2061 21.9138 37.0001 22.5968 36.6901 23.2528Z" fill="#FF8293"/>
<path d="M20.3249 24.8958C23.1069 25.0478 31.7099 25.6128 33.4579 21.8588C35.3329 17.8328 33.6939 12.7098 31.3099 10.4768C28.7259 8.05682 24.5749 9.01282 21.1859 11.2888C18.5229 13.0768 14.3929 13.4918 12.7449 13.5868C12.0189 13.6288 9.42693 14.0828 8.71193 14.2118C5.47793 14.7948 4.72993 17.1238 5.84793 19.6188C7.16293 22.5528 17.5439 24.7428 20.3259 24.8938L20.3249 24.8958ZM26.6269 12.7658C28.4289 12.7658 29.8889 13.8998 29.8889 15.2988C29.8889 16.6978 28.4289 17.8328 26.6269 17.8328C24.8249 17.8328 23.3649 16.6988 23.3649 15.2988C23.3649 13.8988 24.8249 12.7658 26.6269 12.7658Z" fill="#ED4E61"/>
<path d="M20.6091 27.7849C24.6291 28.0039 34.1311 28.6619 36.6901 23.2529C37.0001 22.5969 37.2081 21.9129 37.3361 21.2159C38.2691 16.1619 34.8821 10.3449 33.5331 8.48188C31.9981 6.36188 26.7481 4.83388 21.8511 8.12288C18.0031 10.7069 12.0341 11.3059 9.65305 11.4439C8.60405 11.5049 7.55505 11.6869 6.59305 12.1079C3.79105 13.3319 2.24005 15.7719 2.54405 18.5379C2.62105 19.2409 2.81205 19.9639 3.14005 20.6949C5.04005 24.9349 16.5891 27.5659 20.6101 27.7849H20.6091ZM8.71105 14.2129C9.42605 14.0839 12.0181 13.6299 12.7441 13.5879C14.3921 13.4929 18.5221 13.0779 21.1851 11.2899C24.5741 9.01388 28.7251 8.05688 31.3091 10.4779C33.6931 12.7109 35.3321 17.8339 33.4571 21.8599C31.7091 25.6129 23.1061 25.0479 20.3241 24.8969C17.5421 24.7449 7.16105 22.5549 5.84605 19.6219C4.72705 17.1269 5.47605 14.7979 8.71005 14.2149L8.71105 14.2129Z" fill="#FFA7B3"/>
<path d="M26.627 17.8329C28.429 17.8329 29.889 16.6989 29.889 15.2989C29.889 13.8989 28.429 12.7659 26.627 12.7659C24.825 12.7659 23.365 13.8999 23.365 15.2989C23.365 16.6979 24.825 17.8329 26.627 17.8329Z" fill="#FFA7B3"/>
</g>
<defs>
<clipPath id="clip0_116_665">
<rect width="40" height="40" fill="white"/>
</clipPath>
</defs>
</svg>
