<svg width="40" height="40" viewBox="0 0 40 40" fill="none" xmlns="http://www.w3.org/2000/svg">
<g clip-path="url(#clip0_88_2605)">
<path d="M20 1.4082C22.359 1.4082 22.314 2.2722 23.903 2.3562C25.492 2.4412 26.323 1.9412 27.396 2.0992C28.142 2.2092 28.703 2.5422 29.091 2.8692C29.515 3.2272 29.585 3.8502 29.247 4.2902L25.551 9.0922C25.222 9.4832 25.262 10.0622 25.648 10.3962C31.4 15.3792 38.5 21.3722 38.5 26.7532C38.5 35.7952 31.078 38.5932 20 38.5932C8.922 38.5932 1.5 35.7952 1.5 26.7532C1.5 21.3732 8.6 15.3792 14.352 10.3962C14.738 10.0622 14.778 9.4822 14.449 9.0922L10.753 4.2902C10.415 3.8502 10.485 3.2272 10.909 2.8692C11.297 2.5422 11.858 2.2092 12.604 2.0992C13.677 1.9412 14.509 2.4412 16.097 2.3562C17.686 2.2712 17.641 1.4082 20 1.4082Z" fill="#FFC522"/>
<path d="M20.0831 11.3856C18.1421 11.3856 16.1971 11.2036 14.2991 10.8416C13.6941 10.7256 13.2981 10.1416 13.4131 9.53657C13.5291 8.93157 14.1141 8.53257 14.7181 8.64957C18.2371 9.32057 21.9361 9.32357 25.4151 8.64957C26.0191 8.52857 26.6051 8.92757 26.7221 9.53257C26.8391 10.1376 26.4431 10.7226 25.8381 10.8396C23.9611 11.2026 22.0251 11.3846 20.0831 11.3846V11.3856Z" fill="#99452E"/>
<path d="M20.24 31.9247C17.672 31.9247 15.717 30.4047 14.899 29.3617C14.422 28.7527 14.529 27.8727 15.138 27.3957C15.744 26.9217 16.618 27.0247 17.097 27.6267C17.291 27.8657 19.047 29.9077 21.8 28.8077C22.469 28.5407 22.774 28.0567 22.729 27.7157C22.661 27.1947 21.793 26.5717 20.009 26.3577C15.609 25.8297 14.946 23.3357 14.847 22.5827C14.625 20.8827 15.697 19.2527 17.515 18.5267C21.193 17.0607 23.877 19.0307 24.86 19.9457C25.426 20.4717 25.457 21.3587 24.93 21.9247C24.402 22.4897 23.518 22.5217 22.951 21.9947C22.052 21.1567 20.558 20.3277 18.552 21.1287C17.883 21.3957 17.578 21.8797 17.623 22.2207C17.691 22.7417 18.558 23.3647 20.342 23.5787C24.742 24.1067 25.405 26.6007 25.504 27.3527C25.727 29.0527 24.654 30.6827 22.837 31.4087C21.921 31.7737 21.049 31.9257 20.239 31.9257L20.24 31.9247Z" fill="#FFF3CC"/>
<path d="M20.177 20.8038C19.404 20.8038 18.777 20.1778 18.777 19.4048V17.4088C18.777 16.6358 19.404 16.0098 20.177 16.0098C20.95 16.0098 21.577 16.6358 21.577 17.4088V19.4048C21.577 20.1778 20.95 20.8038 20.177 20.8038Z" fill="#FFF3CC"/>
<path d="M20.177 33.9268C19.404 33.9268 18.777 33.3008 18.777 32.5278V30.5318C18.777 29.7588 19.404 29.1328 20.177 29.1328C20.95 29.1328 21.577 29.7588 21.577 30.5318V32.5278C21.577 33.3008 20.95 33.9268 20.177 33.9268Z" fill="#FFF3CC"/>
</g>
<defs>
<clipPath id="clip0_88_2605">
<rect width="40" height="40" fill="white"/>
</clipPath>
</defs>
</svg>
