<svg width="40" height="40" viewBox="0 0 40 40" fill="none" xmlns="http://www.w3.org/2000/svg">
<g clip-path="url(#clip0_164_1108)">
<path d="M30.3429 24.4666C32.4099 21.7506 31.8979 17.8836 29.1989 15.8296C26.4999 13.7756 22.6369 14.3126 20.5699 17.0296C18.5029 19.7456 19.4069 22.9936 22.1059 25.0476C24.8049 27.1016 28.2759 27.1836 30.3429 24.4666Z" fill="#FFCBA7"/>
<path d="M35.844 11.1779C36.9159 11.1779 37.785 10.3089 37.785 9.2369C37.785 8.16491 36.9159 7.2959 35.844 7.2959C34.772 7.2959 33.903 8.16491 33.903 9.2369C33.903 10.3089 34.772 11.1779 35.844 11.1779Z" fill="#FFCBA7"/>
<path d="M26.516 9.69189H24.614C24.166 9.69189 23.758 9.95089 23.568 10.3559L19.897 18.1579L27.899 26.2909L30.461 25.1259C32.951 23.9939 35.009 21.9949 36.003 19.4329C36.228 18.8539 36.396 18.2489 36.469 17.6379L26.516 9.69189Z" fill="#FFCBA7"/>
<path d="M30.68 18.8528C30.699 18.2738 31.027 17.7828 31.498 17.5188C30.948 17.2778 30.556 16.7378 30.543 16.0978C30.526 15.3038 31.096 14.6398 31.853 14.5038C31.139 14.3748 30.582 13.7708 30.546 13.0158C30.504 12.1378 31.183 11.3928 32.061 11.3508L36.005 11.0608L36.491 3.49982C36.54 2.73682 35.935 2.09082 35.17 2.09082H26.708C26.01 2.09082 25.432 2.63282 25.387 3.32982L24.978 9.69182H27.907C28.836 9.69182 29.444 10.6728 29.03 11.5048C28.363 12.8478 26.977 13.7708 25.375 13.7708H24.714L24.29 20.3618C24.241 21.1248 24.846 21.7708 25.611 21.7708H34.073C34.713 21.7708 35.231 21.3078 35.351 20.6958L32.218 20.4948C31.339 20.4668 30.65 19.7318 30.678 18.8528H30.68Z" fill="#4E5968"/>
<path d="M30.546 13.0151C30.582 13.7701 31.139 14.3751 31.853 14.5031C31.934 14.4891 32.016 14.4751 32.101 14.4731L36.089 14.2851C36.275 14.2811 36.451 14.3151 36.619 14.3661C37.341 14.1441 37.853 13.4601 37.816 12.6711C37.772 11.7361 36.978 11.0131 36.042 11.0571L36.004 11.0601L32.06 11.3501C31.182 11.3921 30.505 12.1371 30.546 13.0151Z" fill="#FFCBA7"/>
<path d="M37.819 15.946C37.803 15.195 37.299 14.576 36.619 14.367C36.451 14.315 36.274 14.282 36.089 14.286L32.101 14.474C32.016 14.476 31.934 14.49 31.853 14.504C31.095 14.64 30.526 15.305 30.543 16.098C30.556 16.738 30.948 17.278 31.498 17.519C31.742 17.383 32.022 17.304 32.322 17.313H35.593C35.94 17.325 36.259 17.44 36.521 17.628C37.279 17.446 37.836 16.757 37.819 15.946Z" fill="#FFCBA7"/>
<path d="M35.592 17.3138H32.321C32.021 17.3038 31.741 17.3818 31.497 17.5188C31.026 17.7828 30.698 18.2738 30.679 18.8528C30.651 19.7308 31.34 20.4668 32.219 20.4948L35.352 20.6958L35.483 20.7038C36.419 20.7338 37.202 19.9998 37.232 19.0638C37.251 18.4748 36.966 17.9468 36.52 17.6288C36.257 17.4408 35.939 17.3258 35.592 17.3148V17.3138Z" fill="#FFCBA7"/>
<path d="M29.031 11.5049C29.445 10.6729 28.837 9.69189 27.908 9.69189H24.552L23.921 13.7709H25.377C26.978 13.7709 28.363 12.8479 29.031 11.5049Z" fill="#FFCBA7"/>
<path d="M13.218 37.9718H2.43896V25.9718H11.713C13.092 25.9718 14.397 25.3458 15.26 24.2698L19.712 18.7188L29.073 26.2257L23.681 32.9498C21.124 36.1408 17.31 37.9718 13.218 37.9718Z" fill="#4E5968"/>
</g>
<defs>
<clipPath id="clip0_164_1108">
<rect width="40" height="40" fill="white"/>
</clipPath>
</defs>
</svg>
