<svg width="64" height="64" viewBox="0 0 64 64" fill="none" xmlns="http://www.w3.org/2000/svg">
<g clip-path="url(#clip0_116_546)">
<path d="M56.752 32.8322C56.752 33.8402 56.576 34.8162 56.24 35.7602L55.712 36.9442C55.696 36.9762 55.68 36.9922 55.664 37.0242C55.552 37.2322 55.424 37.4402 55.296 37.6482C55.216 37.7762 55.136 37.9202 55.04 38.0642C54.832 38.3522 54.624 38.6402 54.384 38.9282C54.352 38.9762 54.32 39.0082 54.288 39.0402C54.016 39.3602 53.744 39.6802 53.44 39.9842C53.184 40.2242 52.896 40.4642 52.624 40.7042C52.784 40.0802 52.896 39.4562 52.896 38.8162C52.896 34.9122 49.696 31.4562 44.752 29.2322L46.256 23.9042C46.336 23.6162 46.256 23.3282 46.096 23.0722L47.552 21.6802C50.144 22.9122 52.304 24.4162 53.888 26.1442C55.712 28.1442 56.752 30.4162 56.752 32.8322Z" fill="#3D3D3D"/>
<path d="M40.528 19.3921L29.168 21.7441C25.056 22.4481 21.632 25.1841 20 28.9121C14.624 31.1041 11.104 34.7201 11.104 38.8161C11.104 39.4561 11.216 40.0801 11.376 40.7041C11.104 40.4641 10.816 40.2241 10.576 39.9841C9.92005 39.3281 9.37605 38.6241 8.89605 37.9041L8.96005 38.0481C8.49605 37.3601 8.12805 36.6721 7.84005 35.9361C7.84005 35.9201 7.82405 35.9041 7.80805 35.8721C7.63205 35.4081 7.50405 34.9281 7.40805 34.4321C7.40805 34.4214 7.40271 34.4108 7.39205 34.4001C7.29605 33.8881 7.24805 33.3601 7.24805 32.8321C7.24805 30.4161 8.28805 28.1441 10.112 26.1441C14.272 21.6001 22.496 18.4961 32 18.4961C35.008 18.4961 37.872 18.8321 40.528 19.3921Z" fill="#3D3D3D"/>
<path d="M52.8993 38.8176C52.8993 34.9152 49.6977 31.4528 44.7457 29.2384L43.4001 33.9664C43.3905 34.6064 43.1585 35.1808 42.7521 35.6944C43.1329 35.6 43.5249 35.5376 43.9329 35.5376C46.0113 35.5376 47.7905 36.8208 48.5201 38.64C48.8721 39.5184 48.2433 40.48 47.2961 40.48H40.5665C39.6209 40.48 38.9905 39.5184 39.3425 38.64C39.5057 38.2352 39.7265 37.8624 39.9857 37.5184C33.2561 40.1808 18.9105 38.7584 18.9921 33.5856C19.0177 31.9248 19.3777 30.3472 20.0017 28.9136C14.6225 31.104 11.0977 34.72 11.0977 38.8176C11.0977 39.4608 11.2097 40.0864 11.3761 40.7008C11.6385 40.9344 11.8769 41.1776 12.1633 41.4C12.1777 41.4112 12.1905 41.424 12.2049 41.4352C12.8033 41.8976 13.4577 42.3328 14.1457 42.7488C14.3553 42.8752 14.5841 42.992 14.8017 43.1136C15.2833 43.384 15.7777 43.6464 16.2961 43.8944C16.6001 44.04 16.9121 44.1776 17.2273 44.3136C21.3521 46.1008 26.4481 47.176 31.9969 47.176C37.5793 47.176 42.7073 46.0896 46.8433 44.2816C47.0929 44.1728 47.3441 44.0656 47.5873 43.9504C48.3201 43.6048 49.0321 43.2432 49.6913 42.8512C49.7121 42.8384 49.7313 42.824 49.7521 42.8128C50.4145 42.416 51.0289 41.9936 51.6097 41.5568C51.7409 41.4576 51.8657 41.3568 51.9921 41.256C52.2161 41.0768 52.4081 40.8848 52.6193 40.6992C52.7857 40.0832 52.8977 39.4576 52.8977 38.816L52.8993 38.8176ZM20.6801 40.1168H16.1441C15.4625 40.1168 14.9473 39.4304 15.2065 38.8C15.7249 37.5392 16.9649 36.6512 18.4129 36.6512C19.8609 36.6512 21.1009 37.5392 21.6193 38.8C21.8785 39.4304 21.3617 40.1168 20.6801 40.1168ZM28.4113 44.608C27.7297 44.608 27.2145 43.9216 27.4737 43.2912C27.9921 42.0304 29.2321 41.1424 30.6801 41.1424C32.1281 41.1424 33.3681 42.0304 33.8865 43.2912C34.1457 43.9216 33.6305 44.608 32.9489 44.608H28.4113Z" fill="#FFC450"/>
<path d="M33.8866 43.2897C33.3682 42.0289 32.1282 41.1409 30.6802 41.1409C29.2322 41.1409 27.9922 42.0289 27.4738 43.2897C27.2146 43.9201 27.7298 44.6065 28.4114 44.6065H32.9474C33.629 44.6065 34.1442 43.9201 33.885 43.2897H33.8866Z" fill="#FFE3A0"/>
<path d="M18.4128 36.6497C16.9648 36.6497 15.7248 37.5377 15.2064 38.7985C14.9472 39.4289 15.4624 40.1153 16.144 40.1153H20.68C21.3616 40.1153 21.8768 39.4289 21.6176 38.7985C21.0992 37.5377 19.8592 36.6497 18.4112 36.6497H18.4128Z" fill="#036D50"/>
<path d="M54.0001 18.5441C53.9681 19.9521 52.8001 21.0721 51.3921 21.0401L49.7761 21.0081L48.2881 20.9761L47.5521 21.6801L46.0961 23.0721C46.0641 23.0241 46.0481 22.9601 46.0001 22.9121L42.6881 19.4561C42.6561 19.4241 42.6081 19.4081 42.5601 19.3761L44.7521 17.2801L44.7841 15.7761L44.8161 14.1921C44.8481 12.7681 46.0161 11.6641 47.4241 11.6801C48.8481 11.7121 49.9521 12.8801 49.9361 14.3041L49.8881 15.8881L51.5041 15.9361C52.9121 15.9681 54.0321 17.1361 54.0001 18.5441Z" fill="white"/>
<path d="M46.256 23.9041L44.752 29.2321L43.408 33.9681C43.392 34.6081 43.168 35.1841 42.752 35.6961C41.632 35.9681 40.656 36.6241 39.984 37.5201C33.264 40.1761 18.912 38.7521 18.992 33.5841C19.024 31.9201 19.376 30.3521 20 28.9121C21.632 25.1841 25.056 22.4481 29.168 21.7441L40.528 19.3921L41.696 19.1521C42.016 19.0881 42.32 19.1841 42.56 19.3761C42.608 19.4081 42.656 19.4241 42.688 19.4561L46 22.9121C46.048 22.9601 46.064 23.0241 46.096 23.0721C46.256 23.3281 46.336 23.6161 46.256 23.9041Z" fill="#F77F00"/>
<path d="M39.9905 37.5184C39.7313 37.8624 39.5105 38.2352 39.3473 38.64C38.9953 39.5184 39.6241 40.48 40.5713 40.48H47.3009C48.2465 40.48 48.8769 39.5184 48.5249 38.64C47.7953 36.8224 46.0161 35.5376 43.9377 35.5376C43.5281 35.5376 43.1361 35.6 42.7569 35.6944C41.6353 35.9712 40.6657 36.6224 39.9937 37.5184H39.9905Z" fill="#C50010"/>
<path d="M55.7105 26.1489H53.8865C55.7105 28.1473 56.7537 30.4209 56.7537 32.8385C56.7537 33.8401 56.5745 34.8161 56.2369 35.7585C56.0929 36.1617 55.9121 36.5585 55.7089 36.9473C55.6721 37.0193 55.6417 37.0913 55.6017 37.1617L54.5329 39.5281H55.7105C59.4049 39.5281 62.4001 36.5329 62.4001 32.8385C62.4001 29.1441 59.4049 26.1489 55.7105 26.1489Z" fill="#4E5968"/>
<path d="M7.8449 35.9426C7.8353 35.9202 7.8225 35.8962 7.8145 35.8738C7.6385 35.4018 7.5009 34.9202 7.4081 34.4306L7.3921 34.3954H7.3985V34.4002C7.3025 33.8866 7.2465 33.3666 7.2465 32.8402C7.2465 30.4226 8.2897 28.149 10.1137 26.1506H8.2897C4.5953 26.1506 1.6001 29.1458 1.6001 32.8402C1.6001 36.5346 4.5953 39.5298 8.2897 39.5298H9.5889L8.9521 38.0434C8.4961 37.3666 8.1185 36.6658 7.8433 35.9442L7.8449 35.9426Z" fill="#4E5968"/>
<path d="M55.6672 37.0178C55.5552 37.229 55.4272 37.4354 55.2992 37.6418C55.2112 37.7826 55.1296 37.9234 55.0336 38.061C54.832 38.3554 54.616 38.645 54.3824 38.9298C54.3504 38.9682 54.3184 39.0066 54.2864 39.045C54.0192 39.3634 53.736 39.677 53.432 39.981C53.184 40.2306 52.8944 40.4626 52.6208 40.701C52.4096 40.885 52.2176 41.0786 51.9936 41.2578C51.8672 41.3586 51.7424 41.4594 51.6112 41.5586C51.0304 41.997 50.416 42.4194 49.7536 42.8146C49.7328 42.8274 49.7136 42.8418 49.6928 42.853C49.0336 43.245 48.3216 43.605 47.5888 43.9522C47.3456 44.0674 47.0944 44.1746 46.8448 44.2834C42.7072 46.0914 37.5808 47.1778 31.9984 47.1778C26.4496 47.1778 21.3536 46.1026 17.2288 44.3154C16.9136 44.1794 16.6016 44.0402 16.2976 43.8962C15.7792 43.6482 15.2848 43.3858 14.8032 43.1154C14.5856 42.9938 14.3568 42.877 14.1472 42.7506C13.4592 42.3346 12.8048 41.8994 12.2064 41.437C12.192 41.4258 12.1792 41.413 12.1648 41.4018C11.8784 41.1794 11.64 40.9362 11.3776 40.7026C11.1072 40.4626 10.8144 40.2322 10.568 39.9842C9.912 39.3266 9.3696 38.6274 8.896 37.9106L8.952 38.0434L9.5888 39.5298L11.7616 44.6082H11.7904C13.3856 50.7778 20.904 55.5154 32 55.5154C43.096 55.5154 50.6144 50.7794 52.2096 44.6082H52.2368L54.5328 39.5298L55.6016 37.1634L55.6672 37.0178Z" fill="#4E5968"/>
<path d="M33.344 9.23209C32.88 11.9201 30.336 13.7281 27.664 13.2641C27.296 13.2001 26.944 13.0881 26.608 12.9441C25.68 14.0321 24.24 14.6241 22.736 14.3521C20.48 13.9681 18.96 11.7921 19.344 9.52009C19.728 7.24809 21.888 5.71209 24.16 6.11209H24.176C25.136 4.27209 27.184 3.16809 29.344 3.53609C32.016 4.00009 33.808 6.54409 33.344 9.23209Z" fill="white"/>
<path d="M37.9873 14.2592C39.9377 14.2592 41.5185 12.672 41.5185 10.712C41.5185 8.75199 39.9377 7.16479 37.9873 7.16479C36.0369 7.16479 34.4561 8.75199 34.4561 10.712C34.4561 12.672 36.0369 14.2592 37.9873 14.2592Z" fill="white"/>
</g>
<defs>
<clipPath id="clip0_116_546">
<rect width="64" height="64" fill="white"/>
</clipPath>
</defs>
</svg>
