<svg width="40" height="40" viewBox="0 0 40 40" fill="none" xmlns="http://www.w3.org/2000/svg">
<g clip-path="url(#clip0_465_568)">
<path d="M20.947 9.47345V7.87945C20.791 8.08545 20.62 8.27445 20.431 8.43245C20.195 8.62945 19.844 8.62945 19.608 8.43245C19.404 8.26145 19.218 8.06045 19.053 7.83545V38.0005C19.053 38.5235 19.477 38.9474 20 38.9474C20.523 38.9474 20.947 38.5235 20.947 38.0005V9.47345Z" fill="#FFAA00"/>
<path d="M8.63102 17.0526V15.4586C8.47502 15.6646 8.30402 15.8536 8.11502 16.0116C7.87902 16.2086 7.52802 16.2086 7.29202 16.0116C7.08802 15.8406 6.90202 15.6396 6.73602 15.4136V31.4596C7.09702 32.1356 7.27802 32.8546 7.22302 33.5226C7.20002 33.8016 6.99802 34.0226 6.73602 34.0956V37.9996C6.73602 38.5226 7.16002 38.9466 7.68302 38.9466C8.20602 38.9466 8.63002 38.5226 8.63002 37.9996V34.0846C8.38702 34.0006 8.20502 33.7876 8.18302 33.5226C8.13002 32.8786 8.29702 32.1896 8.63002 31.5346V17.0506L8.63102 17.0526Z" fill="#FFAA00"/>
<path d="M33.263 21.8046V15.4146C33.098 15.6406 32.912 15.8416 32.707 16.0126C32.471 16.2096 32.12 16.2096 31.884 16.0126C31.695 15.8546 31.524 15.6656 31.368 15.4596V38.0016C31.368 38.5246 31.792 38.9486 32.315 38.9486C32.838 38.9486 33.262 38.5246 33.262 38.0016V21.8056L33.263 21.8046Z" fill="#FFAA00"/>
<path d="M21.105 12.0652C22.153 12.1522 23.337 11.7152 24.258 10.7942C25.179 9.87322 25.616 8.68922 25.53 7.64122C25.503 7.32022 25.246 7.06322 24.926 7.03722C23.878 6.95022 22.694 7.38722 21.773 8.30822C21.418 8.66322 21.158 9.06322 20.949 9.47422V12.0242C21 12.0422 21.051 12.0612 21.106 12.0662L21.105 12.0652Z" fill="#FFDA16"/>
<path d="M18.268 8.30725C17.347 7.38625 16.163 6.94925 15.115 7.03625C14.794 7.06225 14.537 7.31925 14.511 7.64025C14.424 8.68825 14.861 9.87225 15.783 10.7932C16.704 11.7142 17.888 12.1512 18.936 12.0642C18.978 12.0612 19.015 12.0432 19.054 12.0332V9.39725C18.849 9.01325 18.601 8.64025 18.268 8.30725Z" fill="#FFDA16"/>
<path d="M21.105 16.8934C22.153 16.9804 23.337 16.5434 24.258 15.6214C25.179 14.7004 25.616 13.5164 25.53 12.4684C25.503 12.1474 25.246 11.8904 24.926 11.8644C23.878 11.7774 22.694 12.2154 21.773 13.1364C21.418 13.4914 21.158 13.8914 20.949 14.3024V16.8524C21 16.8704 21.051 16.8894 21.106 16.8944L21.105 16.8934Z" fill="#FFDA16"/>
<path d="M18.268 13.1352C17.347 12.2142 16.163 11.7772 15.115 11.8632C14.794 11.8902 14.537 12.1472 14.511 12.4672C14.424 13.5152 14.861 14.6992 15.783 15.6202C16.704 16.5412 17.888 16.9792 18.936 16.8922C18.978 16.8892 19.015 16.8712 19.054 16.8612V14.2252C18.849 13.8412 18.601 13.4682 18.268 13.1352Z" fill="#FFDA16"/>
<path d="M21.105 21.721C22.153 21.808 23.337 21.371 24.258 20.45C25.179 19.529 25.616 18.345 25.53 17.297C25.503 16.976 25.246 16.719 24.926 16.693C23.878 16.606 22.694 17.043 21.773 17.964C21.418 18.319 21.158 18.719 20.949 19.13V21.68C21 21.698 21.051 21.717 21.106 21.722L21.105 21.721Z" fill="#FFDA16"/>
<path d="M21.105 26.5491C22.153 26.6361 23.337 26.1991 24.258 25.2781C25.179 24.3571 25.616 23.1731 25.53 22.1241C25.503 21.8031 25.246 21.5461 24.926 21.5201C23.878 21.4331 22.694 21.8701 21.773 22.7911C21.418 23.1461 21.158 23.5461 20.949 23.9571V26.5071C21 26.5251 21.051 26.5441 21.106 26.5491H21.105Z" fill="#FFDA16"/>
<path d="M18.268 17.963C17.347 17.042 16.163 16.605 15.115 16.692C14.794 16.719 14.537 16.975 14.511 17.296C14.424 18.344 14.861 19.528 15.783 20.449C16.704 21.37 17.888 21.807 18.936 21.72C18.978 21.717 19.015 21.699 19.054 21.689V19.053C18.849 18.67 18.601 18.296 18.268 17.963Z" fill="#FFDA16"/>
<path d="M18.268 22.7911C17.347 21.8701 16.163 21.4331 15.115 21.5201C14.794 21.5471 14.537 21.8031 14.511 22.1241C14.424 23.1721 14.861 24.3561 15.783 25.2781C16.704 26.1991 17.888 26.6361 18.936 26.5491C18.978 26.5461 19.015 26.5281 19.054 26.5181V23.8821C18.849 23.4981 18.602 23.1251 18.269 22.7921L18.268 22.7911Z" fill="#FFDA16"/>
<path d="M21.105 31.3763C22.153 31.4633 23.337 31.0263 24.258 30.1053C25.179 29.1843 25.616 28.0003 25.53 26.9523C25.503 26.6313 25.246 26.3743 24.926 26.3483C23.878 26.2613 22.694 26.6983 21.773 27.6193C21.418 27.9743 21.158 28.3743 20.949 28.7853V31.3353C21 31.3533 21.051 31.3733 21.106 31.3773L21.105 31.3763Z" fill="#FFDA16"/>
<path d="M18.268 27.6193C17.347 26.6983 16.163 26.2613 15.115 26.3483C14.794 26.3753 14.537 26.6323 14.511 26.9523C14.424 28.0003 14.861 29.1843 15.783 30.1053C16.704 31.0263 17.888 31.4633 18.936 31.3763C18.978 31.3733 19.015 31.3553 19.054 31.3453V28.7093C18.849 28.3263 18.601 27.9523 18.268 27.6193Z" fill="#FFDA16"/>
<path d="M20.431 8.43321C20.62 8.27521 20.791 8.08622 20.947 7.88022C21.459 7.20322 21.777 6.29621 21.777 5.29121C21.777 3.97921 21.242 2.82721 20.43 2.14921C20.194 1.95221 19.843 1.95221 19.607 2.14921C18.796 2.82721 18.261 3.98021 18.261 5.29121C18.261 6.27321 18.561 7.16522 19.052 7.83622C19.217 8.06222 19.403 8.26321 19.607 8.43321C19.843 8.63021 20.195 8.63021 20.431 8.43321Z" fill="#FFDA16"/>
<path d="M8.78902 19.6443C9.83702 19.7313 11.021 19.2933 11.942 18.3723C12.863 17.4513 13.3 16.2673 13.214 15.2193C13.187 14.8983 12.93 14.6413 12.61 14.6153C11.562 14.5283 10.378 14.9653 9.45702 15.8873C9.10202 16.2423 8.84102 16.6423 8.63202 17.0533V19.6033C8.68302 19.6213 8.73402 19.6403 8.78902 19.6453V19.6443Z" fill="#FFCD00"/>
<path d="M5.952 15.8864C5.031 14.9654 3.847 14.5274 2.799 14.6144C2.478 14.6414 2.221 14.8974 2.195 15.2184C2.108 16.2664 2.545 17.4504 3.467 18.3714C4.388 19.2924 5.572 19.7294 6.62 19.6434C6.662 19.6394 6.699 19.6224 6.738 19.6114V16.9754C6.533 16.5914 6.286 16.2184 5.953 15.8854L5.952 15.8864Z" fill="#FFCD00"/>
<path d="M8.78902 24.4725C9.83702 24.5595 11.021 24.1225 11.942 23.2015C12.863 22.2805 13.3 21.0965 13.214 20.0485C13.187 19.7275 12.93 19.4705 12.61 19.4445C11.562 19.3575 10.378 19.7945 9.45702 20.7155C9.10202 21.0705 8.84102 21.4705 8.63202 21.8815V24.4314C8.68302 24.4494 8.73402 24.4685 8.78902 24.4725Z" fill="#FFCD00"/>
<path d="M5.952 20.7145C5.031 19.7935 3.847 19.3565 2.799 19.4435C2.478 19.4705 2.221 19.7275 2.195 20.0475C2.108 21.0955 2.545 22.2795 3.467 23.2005C4.388 24.1215 5.572 24.5585 6.62 24.4715C6.662 24.4685 6.699 24.4505 6.738 24.4405V21.8045C6.533 21.4205 6.285 21.0475 5.952 20.7145Z" fill="#FFCD00"/>
<path d="M8.78902 29.3006C9.83702 29.3876 11.021 28.9506 11.942 28.0286C12.863 27.1076 13.3 25.9236 13.214 24.8756C13.187 24.5546 12.93 24.2976 12.61 24.2716C11.562 24.1846 10.378 24.6216 9.45702 25.5436C9.10202 25.8986 8.84102 26.2986 8.63202 26.7096V29.2596C8.68302 29.2776 8.73402 29.2976 8.78902 29.3016V29.3006Z" fill="#FFCD00"/>
<path d="M5.952 25.5426C5.031 24.6216 3.847 24.1836 2.799 24.2706C2.478 24.2976 2.221 24.5546 2.195 24.8746C2.108 25.9226 2.545 27.1066 3.467 28.0276C4.388 28.9486 5.572 29.3866 6.62 29.2996C6.662 29.2966 6.699 29.2786 6.738 29.2676V26.6316C6.533 26.2476 6.286 25.8746 5.953 25.5416L5.952 25.5426Z" fill="#FFCD00"/>
<path d="M8.11504 16.0114C8.30404 15.8534 8.47504 15.6644 8.63104 15.4584C9.14304 14.7824 9.46204 13.8754 9.46204 12.8694C9.46204 11.5574 8.92704 10.4044 8.11504 9.72636C7.87904 9.52936 7.52804 9.52936 7.29204 9.72636C6.48104 10.4044 5.94604 11.5574 5.94604 12.8694C5.94604 13.8504 6.24604 14.7434 6.73704 15.4144C6.90204 15.6404 7.08805 15.8414 7.29305 16.0124C7.52905 16.2094 7.88004 16.2094 8.11604 16.0124L8.11504 16.0114Z" fill="#FFCD00"/>
<path d="M30.544 15.8864C29.623 14.9654 28.439 14.5274 27.391 14.6144C27.07 14.6414 26.813 14.8974 26.787 15.2184C26.7 16.2664 27.137 17.4504 28.059 18.3714C28.98 19.2924 30.164 19.7294 31.212 19.6434C31.268 19.6384 31.318 19.6184 31.369 19.6014V17.0514C31.16 16.6404 30.9 16.2414 30.544 15.8864Z" fill="#FFCD00"/>
<path d="M33.381 19.6443C34.429 19.7313 35.613 19.2933 36.534 18.3723C37.455 17.4513 37.892 16.2673 37.806 15.2193C37.779 14.8983 37.522 14.6413 37.202 14.6153C36.154 14.5283 34.97 14.9653 34.049 15.8873C33.716 16.2203 33.469 16.5943 33.264 16.9773V19.6133C33.303 19.6243 33.34 19.6413 33.382 19.6453L33.381 19.6443Z" fill="#FFCD00"/>
<path d="M30.544 20.7145C29.623 19.7935 28.439 19.3565 27.391 19.4435C27.07 19.4705 26.813 19.7275 26.787 20.0475C26.7 21.0955 27.137 22.2795 28.059 23.2005C28.98 24.1215 30.164 24.5585 31.212 24.4715C31.268 24.4675 31.318 24.4475 31.369 24.4295V21.8795C31.16 21.4685 30.9 21.0685 30.544 20.7135V20.7145Z" fill="#FFCD00"/>
<path d="M33.381 24.4725C34.429 24.5595 35.613 24.1225 36.534 23.2015C37.455 22.2805 37.892 21.0965 37.806 20.0485C37.779 19.7275 37.522 19.4705 37.202 19.4445C36.154 19.3575 34.97 19.7945 34.049 20.7155C33.716 21.0485 33.469 21.4225 33.264 21.8055V24.4415C33.303 24.4525 33.339 24.4695 33.381 24.4725Z" fill="#FFCD00"/>
<path d="M30.544 25.5426C29.623 24.6216 28.439 24.1836 27.391 24.2706C27.07 24.2976 26.813 24.5546 26.787 24.8746C26.7 25.9226 27.137 27.1066 28.059 28.0276C28.98 28.9486 30.164 29.3866 31.212 29.2996C31.268 29.2946 31.318 29.2756 31.369 29.2576V26.7076C31.16 26.2966 30.9 25.8986 30.544 25.5426Z" fill="#FFCD00"/>
<path d="M33.381 29.3006C34.429 29.3876 35.613 28.9506 36.534 28.0286C37.455 27.1076 37.892 25.9236 37.806 24.8756C37.779 24.5546 37.522 24.2976 37.202 24.2716C36.154 24.1846 34.97 24.6216 34.049 25.5436C33.716 25.8766 33.469 26.2506 33.264 26.6336V29.2696C33.303 29.2806 33.34 29.2976 33.382 29.3016L33.381 29.3006Z" fill="#FFCD00"/>
<path d="M8.63105 34.0853C8.68205 34.1033 8.73305 34.1233 8.78805 34.1273C9.83605 34.2143 11.0201 33.7773 11.9411 32.8553C12.8621 31.9343 13.2991 30.7503 13.2131 29.7023C13.1861 29.3813 12.9291 29.1243 12.6091 29.0983C11.5611 29.0113 10.3771 29.4483 9.45605 30.3703C9.10105 30.7253 8.84005 31.1253 8.63105 31.5363C8.29805 32.1903 8.13105 32.8803 8.18405 33.5243C8.20605 33.7893 8.38905 34.0013 8.63105 34.0853Z" fill="#FFCD00"/>
<path d="M7.22302 33.5232C7.27802 32.8542 7.09702 32.1362 6.73602 31.4602C6.53102 31.0772 6.28402 30.7032 5.95102 30.3702C5.03002 29.4492 3.84602 29.0112 2.79802 29.0982C2.47702 29.1252 2.22002 29.3822 2.19402 29.7022C2.10702 30.7502 2.54402 31.9342 3.46602 32.8552C4.38702 33.7762 5.57102 34.2132 6.61902 34.1272C6.66102 34.1232 6.69802 34.1062 6.73702 34.0962C6.99902 34.0232 7.19902 33.8022 7.22302 33.5232Z" fill="#FFCD00"/>
<path d="M30.544 30.3702C29.623 29.4492 28.439 29.0112 27.391 29.0982C27.07 29.1252 26.813 29.3822 26.787 29.7022C26.7 30.7502 27.137 31.9342 28.059 32.8552C28.98 33.7762 30.164 34.2132 31.212 34.1272C31.268 34.1222 31.318 34.1022 31.369 34.0852V31.5352C31.16 31.1242 30.9 30.7242 30.544 30.3692V30.3702Z" fill="#FFCD00"/>
<path d="M33.381 34.1282C34.429 34.2152 35.613 33.7782 36.534 32.8562C37.455 31.9352 37.892 30.7512 37.806 29.7032C37.779 29.3822 37.522 29.1252 37.202 29.0992C36.154 29.0122 34.97 29.4492 34.049 30.3712C33.716 30.7042 33.469 31.0782 33.264 31.4612V34.0972C33.303 34.1082 33.339 34.1252 33.381 34.1282Z" fill="#FFCD00"/>
<path d="M32.708 16.0114C32.912 15.8404 33.098 15.6394 33.264 15.4134C33.755 14.7424 34.055 13.8504 34.055 12.8684C34.055 11.5564 33.52 10.4034 32.709 9.72539C32.473 9.52839 32.122 9.52839 31.886 9.72539C31.075 10.4034 30.539 11.5564 30.539 12.8684C30.539 13.8734 30.857 14.7814 31.37 15.4574C31.526 15.6634 31.697 15.8524 31.886 16.0104C32.122 16.2074 32.473 16.2074 32.709 16.0104L32.708 16.0114Z" fill="#FFCD00"/>
</g>
<defs>
<clipPath id="clip0_465_568">
<rect width="40" height="40" fill="white"/>
</clipPath>
</defs>
</svg>
