<svg width="40" height="40" viewBox="0 0 40 40" fill="none" xmlns="http://www.w3.org/2000/svg">
<g clip-path="url(#clip0_116_594)">
<path d="M35.4171 15.4351H30.8391C29.1364 15.4351 27.7561 16.8154 27.7561 18.5181V23.0961C27.7561 24.7988 29.1364 26.1791 30.8391 26.1791H35.4171C37.1198 26.1791 38.5001 24.7988 38.5001 23.0961V18.5181C38.5001 16.8154 37.1198 15.4351 35.4171 15.4351Z" fill="#2F81F9"/>
<path d="M23.3161 5.81209C23.3161 3.98072 21.8315 2.49609 20.0001 2.49609C18.1687 2.49609 16.6841 3.98072 16.6841 5.81209V9.92409C16.6841 11.7555 18.1687 13.2401 20.0001 13.2401C21.8315 13.2401 23.3161 11.7555 23.3161 9.92409V5.81209Z" fill="#1E6EF4"/>
<path d="M9.161 15.4351H4.583C2.88031 15.4351 1.5 16.8154 1.5 18.5181V23.0961C1.5 24.7988 2.88031 26.1791 4.583 26.1791H9.161C10.8637 26.1791 12.244 24.7988 12.244 23.0961V18.5181C12.244 16.8154 10.8637 15.4351 9.161 15.4351Z" fill="#2F81F9"/>
<path d="M29.473 6.10913H10.356C7.51785 6.10913 5.21704 8.40994 5.21704 11.2481V30.3651C5.21704 33.2033 7.51785 35.5041 10.356 35.5041H29.473C32.3112 35.5041 34.612 33.2033 34.612 30.3651V11.2481C34.612 8.40994 32.3112 6.10913 29.473 6.10913Z" fill="#93C9FF"/>
<path d="M25.008 20.4672C26.2899 20.4672 27.329 19.428 27.329 18.1462C27.329 16.8643 26.2899 15.8252 25.008 15.8252C23.7262 15.8252 22.687 16.8643 22.687 18.1462C22.687 19.428 23.7262 20.4672 25.008 20.4672Z" fill="black"/>
<path d="M14.9919 20.4672C16.2738 20.4672 17.3129 19.428 17.3129 18.1462C17.3129 16.8643 16.2738 15.8252 14.9919 15.8252C13.71 15.8252 12.6709 16.8643 12.6709 18.1462C12.6709 19.428 13.71 20.4672 14.9919 20.4672Z" fill="black"/>
<path d="M23.2659 27.9102H16.7339C15.8829 27.9102 15.1919 27.2192 15.1919 26.3682C15.1919 25.5172 15.8829 24.8262 16.7339 24.8262H23.2659C24.1169 24.8262 24.8079 25.5172 24.8079 26.3682C24.8079 27.2192 24.1169 27.9102 23.2659 27.9102Z" fill="white"/>
</g>
<defs>
<clipPath id="clip0_116_594">
<rect width="40" height="40" fill="white"/>
</clipPath>
</defs>
</svg>
