<svg width="40" height="41" viewBox="0 0 40 41" fill="none" xmlns="http://www.w3.org/2000/svg">
<g clip-path="url(#clip0_465_668)">
<path d="M10.784 36.2954L14.131 37.7584C14.511 37.9244 14.922 38.0064 15.336 37.9994L25.096 37.8394C25.536 37.8324 25.968 37.7244 26.36 37.5254L29.37 35.9934C30.409 35.4644 31.028 34.3634 30.941 33.2004L29.023 14.5264C28.975 13.8904 28.664 13.3034 28.164 12.9074L27.927 12.7194C27.513 12.3914 26.998 12.2164 26.469 12.2244L13.312 12.4404C12.756 12.4494 12.222 12.6614 11.81 13.0364L11.431 13.3824C10.993 13.7814 10.728 14.3344 10.69 14.9244L9.05701 33.4614C8.97901 34.6754 9.66901 35.8084 10.784 36.2954Z" fill="#D0D5DA"/>
<path d="M11.073 7.58523L12.118 11.5122C12.341 12.6712 13.364 13.5022 14.544 13.4822L25.016 13.3102C26.185 13.2912 27.174 12.4422 27.371 11.2902L28.307 7.32323C28.463 6.41123 28.169 5.45323 27.457 4.86123C26.356 3.94623 24.119 2.93023 19.625 3.00323C15.114 3.07723 12.912 4.17423 11.846 5.12823C11.165 5.73723 10.9 6.68723 11.072 7.58423L11.073 7.58523Z" fill="#5D6673"/>
<path d="M19.7838 5.88692C20.3095 5.87829 20.7306 5.55972 20.7243 5.17538C20.7179 4.79104 20.2867 4.48647 19.761 4.49511C19.2352 4.50374 18.8142 4.82231 18.8205 5.20665C18.8268 5.59099 19.2581 5.89555 19.7838 5.88692Z" fill="#D1D1D1"/>
<path d="M15.9378 4.93284C16.411 4.70359 16.7016 4.32595 16.587 4.08937C16.4723 3.85279 15.9958 3.84685 15.5227 4.07611C15.0495 4.30536 14.7589 4.683 14.8735 4.91958C14.9881 5.15616 15.4646 5.1621 15.9378 4.93284Z" fill="#D1D1D1"/>
<path d="M24.4617 4.76285C24.5685 4.52263 24.2656 4.15475 23.7852 3.94115C23.3048 3.72756 22.8287 3.74915 22.7219 3.98936C22.6151 4.22958 22.918 4.59747 23.3985 4.81106C23.8789 5.02465 24.3549 5.00307 24.4617 4.76285Z" fill="#D1D1D1"/>
</g>
<defs>
<clipPath id="clip0_465_668">
<rect width="40" height="40" fill="white" transform="translate(0 0.5)"/>
</clipPath>
</defs>
</svg>
