<svg width="40" height="40" viewBox="0 0 40 40" fill="none" xmlns="http://www.w3.org/2000/svg">
<g clip-path="url(#clip0_116_631)">
<path d="M28.1189 7.59606C25.4259 7.19506 22.6359 7.59506 20.0149 8.59506C17.3849 7.58706 14.5839 7.18306 11.8809 7.58506C4.07088 8.74706 0.060884 17.0581 2.92488 24.9361C5.48988 31.9941 12.6999 35.9091 19.7889 35.8161C27.0119 36.0761 34.4599 32.1461 37.0759 24.9481C39.9389 17.0691 35.9299 8.75906 28.1199 7.59606H28.1189Z" fill="#EF4452"/>
<path d="M29.708 7.95907L23.983 8.64407L26.918 13.1641L20 10.0881L13.581 13.1641L16.017 8.64407L10.408 7.88607C17.268 6.38507 23.354 6.29807 29.708 7.95907Z" fill="#036D50"/>
<path d="M20 8.93007C19.172 8.93007 18.501 8.25807 18.501 7.43107V4.17207C18.501 3.34507 19.172 2.67407 20 2.67407C20.828 2.67407 21.499 3.34507 21.499 4.17207V7.43107C21.499 8.25807 20.828 8.93007 20 8.93007Z" fill="#036D50"/>
</g>
<defs>
<clipPath id="clip0_116_631">
<rect width="40" height="40" fill="white"/>
</clipPath>
</defs>
</svg>
