<svg width="101" height="101" viewBox="0 0 101 101" fill="none" xmlns="http://www.w3.org/2000/svg">
<g clip-path="url(#clip0_88_2658)">
<path d="M39.9632 22.7559C38.524 21.809 36.5873 22.208 35.6404 23.6472L32.2493 27.2958L31.3959 23.1574L29.3759 11.2899V11.2873C29.1234 9.80516 27.7447 8.80526 26.2954 9.05271C24.846 9.30016 23.8764 10.699 24.1289 12.1812L25.8661 22.3923L24.5481 22.665L21.7176 11.0146C21.3641 9.55518 19.9172 8.65376 18.4906 8.99968C17.0615 9.34561 16.1929 10.8101 16.5464 12.2721L19.3491 23.8088L18.2684 24.3416L14.4683 14.7693C13.9254 13.4008 12.3776 12.7316 11.0116 13.2745C9.64553 13.8174 8.97893 15.3652 9.5218 16.7338L13.4785 26.6999L12.1554 27.3514L8.83753 20.443C8.18608 19.0845 6.5827 18.4987 5.25708 19.135C3.93145 19.7713 3.38858 21.3873 4.04003 22.7458L10.2818 35.742L10.3046 35.7268C12.4432 41.7262 18.7153 45.395 25.1314 44.0719C28.6411 43.3473 31.5247 41.2692 33.3502 38.4942L40.8596 27.0837C41.8065 25.6445 41.4075 23.7078 39.9683 22.7609L39.9632 22.7559Z" fill="#FFDBC1"/>
<path d="M69.2128 62.5822L69.0512 63.5215C68.5613 66.3622 65.8621 68.2685 63.0189 67.7787C60.1783 67.2888 58.2719 64.5871 58.7618 61.7465L58.9234 60.8097C57.6609 60.7087 56.3883 60.6228 55.0778 60.5976L53.3381 60.436C38.2689 58.1534 35.9232 44.3644 35.4762 39.8926C35.4081 39.2108 34.8324 38.7084 34.1481 38.726L11.5418 39.2664C10.807 39.2841 10.2111 39.8951 10.2591 40.6274C11.0039 51.6995 18.127 70.0411 35.807 78.9341C36.1656 79.1159 36.4004 79.477 36.4029 79.8785L36.5216 93.5716C36.5266 94.17 37.0114 94.6497 37.6099 94.6497H96.7504C96.7504 79.6336 86.2464 67.2409 69.2077 62.5848L69.2128 62.5822Z" fill="#3E5AF3"/>
<path d="M68.2456 60.6478C80.2385 60.6478 89.9606 50.9256 89.9606 38.9328C89.9606 26.9399 80.2385 17.2178 68.2456 17.2178C56.2528 17.2178 46.5306 26.9399 46.5306 38.9328C46.5306 50.9256 56.2528 60.6478 68.2456 60.6478Z" fill="#FFDBC1"/>
<path d="M57.2356 37.2443C58.1608 32.8375 55.1015 28.4654 50.4026 27.4789C45.7037 26.4925 41.1445 29.2652 40.2194 33.6721C39.2943 38.0789 42.3535 42.451 47.0524 43.4375C51.7513 44.4239 56.3105 41.6512 57.2356 37.2443Z" fill="#FFDBC1"/>
<path d="M96.0262 45.3879C96.9513 40.981 93.8921 36.6089 89.1932 35.6225C84.4943 34.636 79.9351 37.4088 79.0099 41.8156C78.0848 46.2225 81.1441 50.5946 85.843 51.581C90.5419 52.5675 95.101 49.7947 96.0262 45.3879Z" fill="#FFDBC1"/>
<path d="M63.0189 67.7785C65.8595 68.2683 68.5587 66.3619 69.0511 63.5213L69.2127 62.582L69.9904 58.0749L59.7035 56.2998L58.9258 60.8069L58.7642 61.7437C58.2744 64.5843 60.1808 67.2861 63.0214 67.7759L63.0189 67.7785Z" fill="#FFDBC1"/>
<path d="M93.5588 37.8853C96.8363 23.3388 86.7842 8.78975 71.5837 7.26465C59.893 6.09306 48.7855 13.4635 45.3035 24.6846C44.95 25.8259 44.6799 26.9698 44.4905 28.1111C44.4905 28.1111 46.6721 28.053 47.677 32.4515L64.9884 19.7079C64.9884 19.7079 79.1385 36.9486 90.5263 38.562C90.7763 38.5974 91.0818 38.5721 91.3873 38.509C92.2256 38.2439 93.0185 37.5975 93.5588 37.8853Z" fill="#333333"/>
<path d="M64.7526 37.1257C65.0671 35.6272 64.3098 34.1999 63.0611 33.9377C61.8123 33.6756 60.545 34.6778 60.2304 36.1763C59.9158 37.6749 60.6731 39.1022 61.9219 39.3643C63.1706 39.6265 64.438 38.6242 64.7526 37.1257Z" fill="black"/>
<path d="M76.6948 39.6325C77.0094 38.134 76.2521 36.7067 75.0033 36.4445C73.7546 36.1824 72.4872 37.1847 72.1726 38.6832C71.858 40.1817 72.6154 41.609 73.8641 41.8712C75.1129 42.1333 76.3802 41.131 76.6948 39.6325Z" fill="black"/>
<path d="M69.031 49.1976C69.5385 49.3036 69.7986 49.8692 69.5612 50.3313C68.8062 51.7983 67.1397 52.6442 65.4455 52.2882C63.7512 51.9321 62.567 50.4904 62.4634 48.8415C62.4306 48.3239 62.8952 47.9098 63.4027 48.0184L69.0284 49.2001L69.031 49.1976Z" fill="#5C2F17"/>
</g>
<defs>
<clipPath id="clip0_88_2658">
<rect width="101" height="101" fill="white"/>
</clipPath>
</defs>
</svg>
