<svg width="93" height="87" viewBox="0 0 93 87" fill="none" xmlns="http://www.w3.org/2000/svg">
<path d="M35.8403 15.4588C34.4153 14.5213 32.4978 14.9163 31.5603 16.3413L28.2028 19.9538L27.3578 15.8563L25.3578 4.1063V4.1038C25.1078 2.6363 23.7428 1.6463 22.3078 1.8913C20.8728 2.1363 19.9128 3.5213 20.1628 4.9888L21.8828 15.0988L20.5778 15.3688L17.7753 3.8338C17.4253 2.3888 15.9928 1.4963 14.5803 1.8388C13.1653 2.1813 12.3053 3.6313 12.6553 5.0788L15.4303 16.5013L14.3603 17.0288L10.5978 7.5513C10.0603 6.1963 8.52777 5.5338 7.17527 6.0713C5.82277 6.6088 5.16277 8.1413 5.70027 9.4963L9.61777 19.3638L8.30777 20.0088L5.02277 13.1688C4.37777 11.8238 2.79027 11.2438 1.47777 11.8738C0.165274 12.5038 -0.372226 14.1038 0.272774 15.4488L6.45277 28.3163L6.47527 28.3013C8.59277 34.2413 14.8028 37.8738 21.1553 36.5638C24.6303 35.8463 27.4853 33.7888 29.2928 31.0413L36.7278 19.7438C37.6653 18.3188 37.2703 16.4013 35.8453 15.4638L35.8403 15.4588Z" fill="#FFDBC1"/>
<path d="M64.8003 54.891L64.6403 55.821C64.1553 58.6335 61.4828 60.521 58.6678 60.036C55.8553 59.551 53.9678 56.876 54.4528 54.0635L54.6128 53.136C53.3628 53.036 52.1028 52.951 50.8053 52.926L49.0828 52.766C34.1628 50.506 31.8403 36.8535 31.3978 32.426C31.3303 31.751 30.7603 31.2535 30.0828 31.271L7.70029 31.806C6.97279 31.8235 6.38279 32.4285 6.43029 33.1535C7.16779 44.116 14.2203 62.276 31.7253 71.081C32.0803 71.261 32.3128 71.6185 32.3153 72.016L32.4328 85.5735C32.4378 86.166 32.9178 86.641 33.5103 86.641H92.0653C92.0653 71.7735 81.6653 59.5035 64.7953 54.8935L64.8003 54.891Z" fill="#AAB6C6"/>
<path d="M81.2979 44.003C78.2404 48.273 73.6879 51.263 68.5629 52.4155L77.5579 54.303C79.5229 54.7155 81.4979 53.638 82.2104 51.7605L85.1879 43.9355C83.9554 44.223 82.6404 44.2855 81.2979 44.003Z" fill="#333333"/>
<path d="M42.8478 35.928H42.8228C41.0878 35.553 39.5803 34.713 38.4178 33.583L38.7678 43.0005C38.8378 44.873 40.1728 46.458 42.0078 46.843L51.0703 48.7455C46.8603 45.6355 43.9153 41.078 42.8478 35.928Z" fill="#333333"/>
<path d="M43.4779 25.0609L60.6179 12.4434C60.6179 12.4434 74.6279 29.5134 85.9029 31.1109C86.1504 31.1459 86.4529 31.1209 86.7554 31.0584C87.5504 30.8059 88.3004 30.2234 88.8329 30.4284C88.8554 30.4359 88.8829 30.4284 88.9054 30.4384C92.1504 16.0359 82.1979 1.63087 67.1479 0.120868C55.5729 -1.03913 44.5754 6.25837 41.1279 17.3684C40.7779 18.4984 40.5104 19.6309 40.3229 20.7609C40.3229 20.7609 40.4154 20.7684 40.5429 20.7934C41.1029 20.9009 42.6679 21.5109 43.4779 25.0609Z" fill="#333333"/>
<path d="M88.8354 30.4284C88.3029 30.2234 87.5528 30.8059 86.7579 31.0584C86.4529 31.1184 86.1529 31.1459 85.9053 31.1109C74.6303 29.5134 60.6203 12.4434 60.6203 12.4434L43.4803 25.0609C42.6678 21.5134 41.1028 20.9034 40.5453 20.7934C38.3253 21.8434 36.6203 23.7859 36.1003 26.2784C35.5228 28.9984 36.4878 31.6959 38.4203 33.5834C39.5803 34.7159 41.0903 35.5559 42.8253 35.9284H42.8503C43.9203 41.0784 46.8628 45.6359 51.0728 48.7434C52.2778 49.6334 53.5728 50.4234 54.9753 51.0534L54.6253 53.1284L54.4503 54.0534C53.9753 56.8784 55.8503 59.5534 58.6753 60.0284C61.4753 60.5284 64.1503 58.6284 64.6503 55.8284L64.8003 54.9034L65.1503 52.9284C66.3128 52.8609 67.4478 52.6684 68.5653 52.4159C73.6903 51.2634 78.2429 48.2734 81.3004 44.0034C82.6429 44.2859 83.9579 44.2259 85.1904 43.9384C88.2254 43.2284 90.6928 40.9734 91.3503 37.8809C91.9503 35.0834 90.8854 32.3184 88.8379 30.4309L88.8354 30.4284Z" fill="#FFDBC1"/>
<path d="M60.3843 29.6861C60.6957 28.2024 59.9459 26.7893 58.7095 26.5297C57.4731 26.2701 56.2183 27.2625 55.9069 28.7462C55.5954 30.2299 56.3452 31.643 57.5816 31.9026C58.818 32.1621 60.0728 31.1698 60.3843 29.6861Z" fill="black"/>
<path d="M72.2082 32.1685C72.5197 30.6849 71.7699 29.2717 70.5335 29.0121C69.2971 28.7526 68.0423 29.7449 67.7308 31.2286C67.4194 32.7123 68.1692 34.1255 69.4056 34.385C70.642 34.6446 71.8968 33.6522 72.2082 32.1685Z" fill="black"/>
<path d="M64.6203 41.6388C65.1228 41.7438 65.3803 42.3038 65.1453 42.7613C64.3978 44.2138 62.7478 45.0513 61.0703 44.6988C59.3928 44.3463 58.2203 42.9188 58.1178 41.2863C58.0853 40.7738 58.5453 40.3638 59.0478 40.4713L64.6178 41.6413L64.6203 41.6388Z" fill="#5C2F17"/>
</svg>
