<svg width="40" height="40" viewBox="0 0 40 40" fill="none" xmlns="http://www.w3.org/2000/svg">
<g clip-path="url(#clip0_308_612)">
<path d="M29.4081 11.2439C29.2861 8.50291 27.2921 6.30391 24.7201 5.78191C23.8441 3.48691 21.5981 1.89091 19.0091 2.00691C16.3341 2.12591 14.1841 4.03091 13.5951 6.51191C11.4771 7.47091 10.0431 9.63891 10.1531 12.1029C10.2061 13.2889 10.6131 14.3729 11.2611 15.2689C10.8891 16.0849 10.6781 16.9859 10.7201 17.9429C10.8041 19.8179 11.7751 21.4279 13.1941 22.4379C13.1061 23.1149 13.0701 23.8139 13.1021 24.5309C13.3331 29.7169 16.7611 33.7769 20.7591 33.5989C24.7561 33.4209 27.8091 29.0719 27.5781 23.8849C27.5491 23.2459 27.4711 22.6239 27.3511 22.0249C28.8331 20.9009 29.7601 19.0959 29.6701 17.0969C29.6221 16.0249 29.2691 15.0479 28.7281 14.2069C29.1921 13.3209 29.4561 12.3159 29.4081 11.2439Z" fill="#036D50"/>
<path d="M23.7871 11.9058C23.1441 9.23882 20.7671 7.46082 18.1421 7.43882C16.8441 5.35282 14.3341 4.21582 11.8151 4.82282C9.2121 5.45082 7.4651 7.73082 7.3601 10.2788C5.4641 11.6248 4.4701 14.0258 5.0481 16.4238C5.3261 17.5778 5.9331 18.5648 6.7401 19.3198C6.5311 20.1918 6.4951 21.1158 6.7201 22.0478C7.1601 23.8728 8.4211 25.2678 10.0071 25.9878C10.0501 26.6688 10.1481 27.3618 10.3161 28.0598C11.5331 33.1068 15.6731 36.4378 19.5631 35.4998C23.4531 34.5618 25.6201 29.7098 24.4031 24.6628C24.2531 24.0408 24.0581 23.4458 23.8251 22.8808C25.0651 21.4948 25.6301 19.5458 25.1611 17.6008C24.9101 16.5578 24.3761 15.6668 23.6841 14.9438C23.9711 13.9848 24.0391 12.9488 23.7871 11.9058Z" fill="#03905A"/>
<path d="M34.992 16.1639C35.552 13.4779 34.164 10.8539 31.801 9.71094C31.521 7.26994 29.739 5.16894 27.202 4.63994C24.581 4.09394 22.026 5.40694 20.841 7.66494C18.551 8.06994 16.626 9.81494 16.122 12.2309C15.88 13.3929 16.006 14.5449 16.412 15.5719C15.85 16.2699 15.422 17.0909 15.227 18.0289C14.844 19.8659 15.387 21.6669 16.512 22.9969C16.26 23.6309 16.051 24.2989 15.905 25.0019C14.846 30.0839 17.162 34.8659 21.08 35.6829C24.997 36.4989 29.031 33.0409 30.091 27.9589C30.222 27.3329 30.3 26.7109 30.331 26.1009C32.045 25.3789 33.39 23.8589 33.798 21.8999C34.017 20.8499 33.916 19.8159 33.6 18.8669C34.269 18.1229 34.774 17.2149 34.993 16.1649L34.992 16.1639Z" fill="#23B169"/>
<path d="M30.089 27.9589C30.22 27.3329 30.298 26.7109 30.329 26.1009C32.043 25.3789 33.388 23.8589 33.796 21.8999C34.015 20.8499 33.914 19.8159 33.598 18.8669C34.267 18.1229 34.772 17.2149 34.991 16.1649C35.551 13.4789 34.163 10.8549 31.8 9.71186C31.52 7.27086 29.738 5.16986 27.201 4.64086C27.173 4.63486 27.145 4.63586 27.116 4.63086L21.114 35.6889C25.02 36.4769 29.032 33.0259 30.088 27.9599L30.089 27.9589Z" fill="#0A9F60"/>
<path d="M23.7922 35.5719C19.4942 34.5499 16.8872 35.5719 16.8872 35.5719V36.9479C16.8872 37.5289 17.3582 37.9999 17.9392 37.9999H22.7402C23.3212 37.9999 23.7922 37.5289 23.7922 36.9479V35.5719Z" fill="#68C76F"/>
</g>
<defs>
<clipPath id="clip0_308_612">
<rect width="40" height="40" fill="white"/>
</clipPath>
</defs>
</svg>
