<svg width="40" height="40" viewBox="0 0 40 40" fill="none" xmlns="http://www.w3.org/2000/svg">
<g clip-path="url(#clip0_116_607)">
<path d="M3.12793 30.561C10.6889 38.175 22.9899 38.216 30.6009 30.653C38.2119 23.088 38.2529 10.783 30.6919 3.16797L3.12793 30.561Z" fill="#C1EEC9"/>
<path d="M27.9919 28.0261C34.1539 21.9021 34.1869 11.9421 28.0649 5.77808L5.75293 27.9531C11.8749 34.1181 21.8319 34.1511 27.9919 28.0261Z" fill="#EF4452"/>
<path d="M25.066 23.0299C25.606 23.5739 25.603 24.4529 25.06 24.9919C24.516 25.5319 23.637 25.5299 23.098 24.9859C22.786 24.6719 22.51 23.7359 22.332 23.0019C22.222 22.5469 22.635 22.1379 23.088 22.2509C23.82 22.4329 24.754 22.7149 25.066 23.0299ZM26.886 18.0949C27.64 18.2309 28.142 18.9539 28.005 19.7069C27.869 20.4609 27.147 20.9619 26.393 20.8249C25.964 20.7479 25.11 20.1389 24.452 19.6269C24.056 19.3189 24.169 18.6909 24.648 18.5399C25.444 18.2899 26.458 18.0179 26.886 18.0949ZM26.523 12.8859C27.278 12.7649 27.989 13.2829 28.108 14.0409C28.229 14.7979 27.711 15.5089 26.953 15.6269C26.522 15.6949 25.529 15.3959 24.755 15.1249C24.286 14.9609 24.188 14.3389 24.584 14.0389C25.238 13.5429 26.091 12.9529 26.522 12.8849L26.523 12.8859ZM18.168 26.7599C18.299 27.5149 19.017 28.0229 19.772 27.8919C20.527 27.7609 21.033 27.0409 20.901 26.2859C20.827 25.8569 20.223 24.9989 19.716 24.3379C19.411 23.9399 18.781 24.0489 18.628 24.5269C18.373 25.3199 18.094 26.3309 18.168 26.7599ZM12.883 26.3619C12.758 27.1159 13.271 27.8319 14.027 27.9559C14.783 28.0819 15.498 27.5689 15.621 26.8119C15.692 26.3819 15.399 25.3869 15.134 24.6099C14.974 24.1399 14.352 24.0379 14.049 24.4319C13.549 25.0829 12.953 25.9319 12.883 26.3629V26.3619Z" fill="#422E27"/>
<path d="M30.0349 3.82102C33.5219 7.33102 35.4319 11.985 35.4159 16.927C35.4009 21.866 33.4579 26.509 29.9499 29.996C22.7109 37.187 10.9749 37.148 3.78492 29.909L2.04092 31.643C1.92092 31.762 1.92192 31.96 2.04392 32.078C6.13192 36.011 11.4129 37.982 16.7069 38C22.1529 38.018 27.6079 35.961 31.7669 31.827C35.8009 27.819 38.0339 22.481 38.0509 16.802C38.0689 11.289 35.9979 6.08402 32.2139 2.09402C32.0969 1.97102 31.8989 1.96902 31.7789 2.08802L30.0349 3.82102Z" fill="#037F56"/>
</g>
<defs>
<clipPath id="clip0_116_607">
<rect width="40" height="40" fill="white"/>
</clipPath>
</defs>
</svg>
